<?xml version="1.0" encoding="UTF-8" standalone="no"?><!DOCTYPE svg PUBLIC "-//W3C//DTD SVG 1.1//EN" "http://www.w3.org/Graphics/SVG/1.1/DTD/svg11.dtd"><svg width="100%" height="100%" viewBox="0 0 1250 1255" version="1.1" xmlns="http://www.w3.org/2000/svg" xmlns:xlink="http://www.w3.org/1999/xlink" xml:space="preserve" xmlns:serif="http://www.serif.com/" style="fill-rule:evenodd;clip-rule:evenodd;stroke-linejoin:round;stroke-miterlimit:2;"><rect id="clear-night" x="0" y="1.257" width="1250" height="1250" style="fill:none;"/><g id="clear-night1" serif:id="clear-night"><path d="M492.483,787.25c-3.387,-1.482 -5.491,-4.917 -5.275,-8.607c0.216,-3.69 2.708,-6.856 6.244,-7.932c51.394,-18.133 107.161,-61.692 142.717,-123.953c35.555,-62.26 44.733,-132.426 34.245,-185.907c-0.872,-3.588 0.585,-7.34 3.651,-9.399c3.065,-2.06 7.089,-1.991 10.082,0.172c78.114,57.81 102.417,166.356 53.038,252.822c-49.378,86.466 -155.214,120.694 -244.702,82.804Z" style="fill:#d9d6ca;"/><path d="M587.441,710.045c1.683,4.759 2.598,9.878 2.598,15.209c0,25.202 -20.461,45.663 -45.662,45.663c-10.64,0 -20.434,-3.646 -28.2,-9.756c24.425,-11.907 49.022,-29.175 71.264,-51.116Z" style="fill:#f9eaa9;"/><path d="M667.337,775.407c-2.021,-6.332 -3.112,-13.078 -3.112,-20.077c0,-36.451 29.594,-66.045 66.046,-66.045c4.812,-0 9.505,0.516 14.026,1.495c-2.173,4.608 -4.542,9.167 -7.112,13.666c-17.359,30.398 -41.696,54.339 -69.848,70.961Z" style="fill:#f9eaa9;"/><path d="M760.385,577.534c-3.859,1.76 -8.147,2.741 -12.663,2.741c-16.876,0 -30.577,-13.701 -30.577,-30.577c-0,-14.799 10.535,-27.156 24.508,-29.974c9.225,18.192 15.539,37.72 18.732,57.81Z" style="fill:#f9eaa9;"/><path d="M741.653,519.724c9.225,18.192 15.539,37.72 18.732,57.81c-3.859,1.76 -8.147,2.741 -12.663,2.741c-16.876,0 -30.577,-13.701 -30.577,-30.577c-0,-14.799 10.535,-27.156 24.508,-29.974Z" style="fill:#aaa696;"/><path d="M744.297,690.78c-2.173,4.608 -4.542,9.167 -7.112,13.666c-17.359,30.398 -41.696,54.339 -69.848,70.961c-2.021,-6.332 -3.112,-13.078 -3.112,-20.077c0,-36.451 29.594,-66.045 66.046,-66.045c4.812,-0 9.505,0.516 14.026,1.495Z" style="fill:#b0ada3;"/><path d="M516.177,761.161c24.425,-11.907 49.022,-29.175 71.264,-51.116c1.683,4.759 2.598,9.878 2.598,15.209c0,25.202 -20.461,45.663 -45.662,45.663c-10.64,0 -20.434,-3.646 -28.2,-9.756Z" style="fill:#918e82;"/></g></svg>