<?xml version="1.0" encoding="UTF-8" standalone="no"?><!DOCTYPE svg PUBLIC "-//W3C//DTD SVG 1.1//EN" "http://www.w3.org/Graphics/SVG/1.1/DTD/svg11.dtd"><svg width="100%" height="100%" viewBox="0 0 1255 1250" version="1.1" xmlns="http://www.w3.org/2000/svg" xmlns:xlink="http://www.w3.org/1999/xlink" xml:space="preserve" xmlns:serif="http://www.serif.com/" style="fill-rule:evenodd;clip-rule:evenodd;stroke-linecap:round;stroke-linejoin:round;stroke-miterlimit:1.5;"><rect id="fog" x="3.217" y="0" width="1250" height="1250" style="fill:none;"/><g id="fog1" serif:id="fog"><path d="M208.331,472.915c46.654,-24.619 139.962,-73.857 209.943,-74.244c69.981,-0.388 145.689,35.106 209.943,71.917c67.842,38.865 139.963,65.29 209.944,64.903c69.981,-0.388 163.289,-44.95 209.943,-67.23" style="fill:none;stroke:#1770a2;stroke-width:16.67px;"/><path d="M208.331,583.685c46.654,-24.619 139.962,-73.856 209.943,-74.244c69.981,-0.388 145.689,35.107 209.943,71.917c67.842,38.866 139.963,65.291 209.944,64.903c69.981,-0.388 163.289,-44.949 209.943,-67.23" style="fill:none;stroke:#1770a2;stroke-width:16.67px;"/><path d="M208.331,694.455c46.654,-24.618 139.962,-73.856 209.943,-74.244c69.981,-0.388 145.689,35.107 209.943,71.917c67.842,38.866 139.963,65.291 209.944,64.903c69.981,-0.388 163.289,-44.949 209.943,-67.23" style="fill:none;stroke:#1770a2;stroke-width:16.67px;"/><path d="M208.331,805.226c46.654,-24.619 139.962,-73.857 209.943,-74.245c69.981,-0.387 145.689,35.107 209.943,71.918c67.842,38.865 139.963,65.29 209.944,64.902c69.981,-0.387 163.289,-44.949 209.943,-67.23" style="fill:none;stroke:#1770a2;stroke-width:16.67px;"/></g></svg>