<?xml version="1.0" encoding="UTF-8" standalone="no"?><!DOCTYPE svg PUBLIC "-//W3C//DTD SVG 1.1//EN" "http://www.w3.org/Graphics/SVG/1.1/DTD/svg11.dtd"><svg width="100%" height="100%" viewBox="0 0 1255 1255" version="1.1" xmlns="http://www.w3.org/2000/svg" xmlns:xlink="http://www.w3.org/1999/xlink" xml:space="preserve" xmlns:serif="http://www.serif.com/" style="fill-rule:evenodd;clip-rule:evenodd;stroke-linejoin:round;stroke-miterlimit:2;"><rect id="hail" x="0.571" y="3.619" width="1250" height="1250" style="fill:none;"/><g id="hail1" serif:id="hail"><g><circle cx="440.949" cy="376.177" r="210.397" style="fill:#eaeaea;"/><circle cx="786.508" cy="360.813" r="162.685" style="fill:#eaeaea;"/><circle cx="536.133" cy="445.84" r="190.066" style="fill:#f0f0f0;"/><circle cx="891.873" cy="411.842" r="145.078" style="fill:#f0f0f0;"/><circle cx="297.367" cy="541.512" r="190.066" style="fill:#f8f8f8;"/><circle cx="766.318" cy="566.242" r="190.066" style="fill:#f7f7f7;"/><circle cx="496.232" cy="621.526" r="155.114" style="fill:#fff;"/><circle cx="1003.28" cy="538.601" r="140.561" style="fill:#fff;"/></g><path d="M416.177,813.033c33.201,12.496 64.583,35.296 86.727,63.011c-1.624,35.438 -13.611,72.33 -33.127,101.955c-34.205,9.406 -72.995,9.406 -107.201,-0c-19.515,-29.625 -31.502,-66.517 -33.127,-101.955c22.145,-27.715 53.526,-50.515 86.728,-63.011Z" style="fill:#9ec5db;"/><path d="M874.102,822.483c18.737,36.065 28.035,79.52 25.698,120.095c-28.51,28.965 -66.966,51.237 -106.277,61.552c-36.357,-18.164 -69.422,-47.855 -91.38,-82.055c6.04,-40.19 24.06,-80.812 49.801,-112.264c40.09,-6.675 84.292,-2.09 122.158,12.672Z" style="fill:#9ec5db;"/><path d="M548.898,1059.6c12.838,-17.172 31.352,-31.554 51.165,-39.747c20.298,6.903 39.697,20.067 53.612,36.378c-0.293,21.438 -6.817,43.956 -18.031,62.23c-20.479,6.346 -43.911,7.1 -64.756,2.082c-12.364,-17.516 -20.321,-39.568 -21.99,-60.943Z" style="fill:#9ec5db;"/></g></svg>