<?xml version="1.0" encoding="UTF-8"?>
<svg id="Ebene_1" xmlns="http://www.w3.org/2000/svg" version="1.1" xmlns:serif="http://www.serif.com/" xmlns:xlink="http://www.w3.org/1999/xlink" viewBox="0 0 23 23">
  <!-- Generator: Adobe Illustrator 29.3.1, SVG Export Plug-In . SVG Version: 2.1.0 Build 151)  -->
  <defs>
    <style>
      .st0 {
        fill: #f9eaa9;
      }

      .st0, .st1, .st2, .st3, .st4 {
        fill-rule: evenodd;
      }

      .st5 {
        fill: #fff;
      }

      .st6 {
        fill: none;
      }

      .st1 {
        fill: #aaa696;
      }

      .st2 {
        fill: #b0ada3;
      }

      .st3 {
        fill: #d9d6ca;
      }

      .st7 {
        fill: #efefef;
      }

      .st4 {
        fill: #918e82;
      }

      .st8 {
        fill: #f7f7f7;
      }
    </style>
  </defs>
  <rect id="cloudy-night" class="st6" x="0" y="0" width="22.9" height="22.9"/>
  <g id="partly-cloudy-night">
    <g>
      <path class="st3" d="M10.2,11.2c0,0-.1,0,0-.2,0,0,0-.1.1-.1.9-.3,2-1.1,2.6-2.3.7-1.1.8-2.4.6-3.4,0,0,0-.1,0-.2,0,0,.1,0,.2,0,1.4,1.1,1.9,3,1,4.6s-2.8,2.2-4.5,1.5Z"/>
      <path class="st0" d="M11.9,9.8c0,0,0,.2,0,.3,0,.5-.4.8-.8.8s-.4,0-.5-.2c.4-.2.9-.5,1.3-.9Z"/>
      <path class="st0" d="M13.4,11c0-.1,0-.2,0-.4,0-.7.5-1.2,1.2-1.2s.2,0,.3,0c0,0,0,.2-.1.3-.3.6-.8,1-1.3,1.3Z"/>
      <path class="st0" d="M15.1,7.4c0,0-.1,0-.2,0-.3,0-.6-.3-.6-.6s.2-.5.4-.5c.2.3.3.7.3,1.1Z"/>
      <path class="st1" d="M14.8,6.3c.2.3.3.7.3,1.1,0,0-.1,0-.2,0-.3,0-.6-.3-.6-.6s.2-.5.4-.5Z"/>
      <path class="st2" d="M14.8,9.5c0,0,0,.2-.1.3-.3.6-.8,1-1.3,1.3,0-.1,0-.2,0-.4,0-.7.5-1.2,1.2-1.2s.2,0,.3,0Z"/>
      <path class="st4" d="M10.6,10.8c.4-.2.9-.5,1.3-.9,0,0,0,.2,0,.3,0,.5-.4.8-.8.8s-.4,0-.5-.2Z"/>
    </g>
    <circle class="st7" cx="8.9" cy="12.5" r="3.4"/>
    <circle class="st8" cx="5.5" cy="12.9" r="2.8"/>
    <circle class="st7" cx="16.8" cy="12.1" r="3.5"/>
    <circle class="st8" cx="13.4" cy="14.4" r="3.5"/>
    <circle class="st5" cx="8.4" cy="15.4" r="2.6"/>
    <circle class="st5" cx="16.8" cy="14.8" r="3.1"/>
  </g>
</svg>