<?xml version="1.0" encoding="UTF-8" standalone="no"?><!DOCTYPE svg PUBLIC "-//W3C//DTD SVG 1.1//EN" "http://www.w3.org/Graphics/SVG/1.1/DTD/svg11.dtd"><svg width="100%" height="100%" viewBox="0 0 1255 1255" version="1.1" xmlns="http://www.w3.org/2000/svg" xmlns:xlink="http://www.w3.org/1999/xlink" xml:space="preserve" xmlns:serif="http://www.serif.com/" style="fill-rule:evenodd;clip-rule:evenodd;stroke-linecap:round;stroke-linejoin:round;stroke-miterlimit:1.5;"><rect id="rain-snow-showers-night" x="1.615" y="1.257" width="1250" height="1250" style="fill:none;"/><g id="rain-snow-showers-night1" serif:id="rain-snow-showers-night"><g><g><path d="M395.914,948.885l-29.587,29.586l-29.586,-29.586" style="fill:none;stroke:#fff;stroke-width:16.67px;"/><path d="M408.39,896.47l-42.063,42.063l-42.062,-42.063" style="fill:none;stroke:#fff;stroke-width:16.67px;"/><path d="M392.436,870.362l-26.109,26.108l-26.108,-26.108" style="fill:none;stroke:#fff;stroke-width:16.67px;"/><path d="M366.327,856.779l0,140.709" style="fill:none;stroke:#fff;stroke-width:16.67px;"/></g><g><path d="M423.697,997.968l-40.415,-10.829l10.829,-40.416" style="fill:none;stroke:#fff;stroke-width:16.67px;"/><path d="M475.328,982.566l-57.459,-15.396l15.396,-57.459" style="fill:none;stroke:#fff;stroke-width:16.67px;"/><path d="M489.961,955.694l-35.665,-9.556l9.557,-35.664" style="fill:none;stroke:#fff;stroke-width:16.67px;"/><path d="M488.67,926.293l-121.857,70.354" style="fill:none;stroke:#fff;stroke-width:16.67px;"/></g><g><path d="M395.082,1046.57l-10.83,-40.416l40.416,-10.829" style="fill:none;stroke:#fff;stroke-width:16.67px;"/><path d="M434.236,1083.58l-15.396,-57.459l57.459,-15.396" style="fill:none;stroke:#fff;stroke-width:16.67px;"/><path d="M464.823,1082.82l-9.556,-35.664l35.665,-9.557" style="fill:none;stroke:#fff;stroke-width:16.67px;"/><path d="M489.641,1067l-121.857,-70.354" style="fill:none;stroke:#fff;stroke-width:16.67px;"/></g><g><path d="M338.683,1046.09l29.586,-29.586l29.586,29.586" style="fill:none;stroke:#fff;stroke-width:16.67px;"/><path d="M326.206,1098.51l42.063,-42.063l42.063,42.063" style="fill:none;stroke:#fff;stroke-width:16.67px;"/><path d="M342.161,1124.61l26.108,-26.108l26.108,26.108" style="fill:none;stroke:#fff;stroke-width:16.67px;"/><path d="M368.269,1138.2l-0,-140.708" style="fill:none;stroke:#fff;stroke-width:16.67px;"/></g><g><path d="M310.899,997.007l40.416,10.83l-10.829,40.415" style="fill:none;stroke:#fff;stroke-width:16.67px;"/><path d="M259.269,1012.41l57.458,15.396l-15.396,57.458" style="fill:none;stroke:#fff;stroke-width:16.67px;"/><path d="M244.636,1039.28l35.664,9.556l-9.556,35.664" style="fill:none;stroke:#fff;stroke-width:16.67px;"/><path d="M245.926,1068.68l121.858,-70.355" style="fill:none;stroke:#fff;stroke-width:16.67px;"/></g><g><path d="M339.515,948.405l10.829,40.415l-40.415,10.829" style="fill:none;stroke:#fff;stroke-width:16.67px;"/><path d="M300.361,911.392l15.396,57.459l-57.459,15.396" style="fill:none;stroke:#fff;stroke-width:16.67px;"/><path d="M269.773,912.155l9.556,35.665l-35.664,9.556" style="fill:none;stroke:#fff;stroke-width:16.67px;"/><path d="M244.956,927.974l121.857,70.354" style="fill:none;stroke:#fff;stroke-width:16.67px;"/></g></g><path d="M572.76,1002.95l70.361,-121.868" style="fill:none;stroke:#1978ae;stroke-width:16.67px;"/><path d="M626.176,1108.29l70.36,-121.867" style="fill:none;stroke:#1978ae;stroke-width:16.67px;"/><path d="M770.277,1002.95l70.36,-121.868" style="fill:none;stroke:#1978ae;stroke-width:16.67px;"/><path d="M823.693,1108.29l70.36,-121.867" style="fill:none;stroke:#1978ae;stroke-width:16.67px;"/><path d="M967.794,1002.95l70.36,-121.868" style="fill:none;stroke:#1978ae;stroke-width:16.67px;"/><g><g><path d="M558.546,451.615c-3.387,-1.482 -5.491,-4.917 -5.275,-8.607c0.216,-3.69 2.708,-6.855 6.244,-7.932c51.394,-18.132 107.162,-61.692 142.717,-123.952c35.555,-62.261 44.733,-132.427 34.245,-185.907c-0.872,-3.589 0.586,-7.341 3.651,-9.4c3.065,-2.06 7.089,-1.991 10.082,0.173c78.114,57.809 102.417,166.355 53.039,252.821c-49.379,86.466 -155.215,120.694 -244.703,82.804Z" style="fill:#d9d6ca;"/><path d="M653.504,374.411c1.683,4.758 2.598,9.877 2.598,15.209c0,25.202 -20.46,45.663 -45.662,45.663c-10.639,-0 -20.434,-3.647 -28.2,-9.757c24.425,-11.906 49.022,-29.175 71.264,-51.115Z" style="fill:#f9eaa9;"/><path d="M733.401,439.772c-2.021,-6.332 -3.112,-13.078 -3.112,-20.077c-0,-36.451 29.593,-66.045 66.045,-66.045c4.812,0 9.505,0.516 14.027,1.496c-2.174,4.608 -4.543,9.166 -7.112,13.665c-17.36,30.398 -41.697,54.34 -69.848,70.961Z" style="fill:#f9eaa9;"/><path d="M826.448,241.899c-3.859,1.761 -8.147,2.741 -12.663,2.741c-16.876,0 -30.577,-13.701 -30.577,-30.577c-0,-14.799 10.535,-27.156 24.509,-29.974c9.224,18.192 15.538,37.721 18.731,57.81Z" style="fill:#f9eaa9;"/><path d="M807.717,184.089c9.224,18.192 15.538,37.721 18.731,57.81c-3.859,1.761 -8.147,2.741 -12.663,2.741c-16.876,0 -30.577,-13.701 -30.577,-30.577c-0,-14.799 10.535,-27.156 24.509,-29.974Z" style="fill:#aaa696;"/><path d="M810.361,355.146c-2.174,4.608 -4.543,9.166 -7.112,13.665c-17.36,30.398 -41.697,54.34 -69.848,70.961c-2.021,-6.332 -3.112,-13.078 -3.112,-20.077c-0,-36.451 29.593,-66.045 66.045,-66.045c4.812,0 9.505,0.516 14.027,1.496Z" style="fill:#b0ada3;"/><path d="M582.24,425.526c24.425,-11.906 49.022,-29.175 71.264,-51.115c1.683,4.758 2.598,9.877 2.598,15.209c0,25.202 -20.46,45.663 -45.662,45.663c-10.639,-0 -20.434,-3.647 -28.2,-9.757Z" style="fill:#918e82;"/></g><circle cx="482.457" cy="520.11" r="185.99" style="fill:#efefef;"/><circle cx="297.773" cy="543.963" r="152.844" style="fill:#f7f7f7;"/><circle cx="918.234" cy="494.93" r="190.066" style="fill:#efefef;"/><circle cx="728.169" cy="621.664" r="190.066" style="fill:#f7f7f7;"/><circle cx="456.563" cy="677.748" r="139.183" style="fill:#fff;"/><circle cx="918.234" cy="642.233" r="169.497" style="fill:#fff;"/></g></g></svg>