<?xml version="1.0" encoding="UTF-8" standalone="no"?><!DOCTYPE svg PUBLIC "-//W3C//DTD SVG 1.1//EN" "http://www.w3.org/Graphics/SVG/1.1/DTD/svg11.dtd"><svg width="100%" height="100%" viewBox="0 0 1255 1255" version="1.1" xmlns="http://www.w3.org/2000/svg" xmlns:xlink="http://www.w3.org/1999/xlink" xml:space="preserve" xmlns:serif="http://www.serif.com/" style="fill-rule:evenodd;clip-rule:evenodd;stroke-linecap:round;stroke-linejoin:round;stroke-miterlimit:1.5;"><rect id="rain-snow" x="1.615" y="1.681" width="1250" height="1250" style="fill:none;"/><g id="rain-snow1" serif:id="rain-snow"><g><circle cx="441.992" cy="380.343" r="210.397" style="fill:#eaeaea;"/><circle cx="787.552" cy="364.98" r="162.685" style="fill:#eaeaea;"/><circle cx="537.177" cy="450.007" r="190.066" style="fill:#f0f0f0;"/><circle cx="892.917" cy="416.009" r="145.078" style="fill:#f0f0f0;"/><circle cx="298.411" cy="545.679" r="190.066" style="fill:#f8f8f8;"/><circle cx="767.362" cy="570.409" r="190.066" style="fill:#f7f7f7;"/><circle cx="497.276" cy="625.692" r="155.114" style="fill:#fff;"/><circle cx="1004.32" cy="542.767" r="140.561" style="fill:#fff;"/></g><g><g><path d="M359.33,906.315l-29.586,29.586l-29.586,-29.586" style="fill:none;stroke:#fff;stroke-width:16.67px;"/><path d="M371.807,853.9l-42.063,42.063l-42.063,-42.063" style="fill:none;stroke:#fff;stroke-width:16.67px;"/><path d="M355.852,827.792l-26.108,26.108l-26.108,-26.108" style="fill:none;stroke:#fff;stroke-width:16.67px;"/><path d="M329.744,814.209l-0,140.708" style="fill:none;stroke:#fff;stroke-width:16.67px;"/></g><g><path d="M387.113,955.398l-40.415,-10.83l10.829,-40.415" style="fill:none;stroke:#fff;stroke-width:16.67px;"/><path d="M438.744,939.996l-57.459,-15.396l15.396,-57.459" style="fill:none;stroke:#fff;stroke-width:16.67px;"/><path d="M453.377,913.124l-35.664,-9.556l9.556,-35.664" style="fill:none;stroke:#fff;stroke-width:16.67px;"/><path d="M452.086,883.722l-121.857,70.355" style="fill:none;stroke:#fff;stroke-width:16.67px;"/></g><g><path d="M358.498,1004l-10.829,-40.415l40.415,-10.829" style="fill:none;stroke:#fff;stroke-width:16.67px;"/><path d="M397.652,1041.01l-15.396,-57.459l57.459,-15.396" style="fill:none;stroke:#fff;stroke-width:16.67px;"/><path d="M428.24,1040.25l-9.557,-35.665l35.665,-9.556" style="fill:none;stroke:#fff;stroke-width:16.67px;"/><path d="M453.057,1024.43l-121.857,-70.354" style="fill:none;stroke:#fff;stroke-width:16.67px;"/></g><g><path d="M302.099,1003.52l29.586,-29.586l29.586,29.586" style="fill:none;stroke:#fff;stroke-width:16.67px;"/><path d="M289.622,1055.93l42.063,-42.063l42.063,42.063" style="fill:none;stroke:#fff;stroke-width:16.67px;"/><path d="M305.577,1082.04l26.108,-26.108l26.108,26.108" style="fill:none;stroke:#fff;stroke-width:16.67px;"/><path d="M331.685,1095.63l0,-140.709" style="fill:none;stroke:#fff;stroke-width:16.67px;"/></g><g><path d="M274.316,954.437l40.415,10.829l-10.829,40.416" style="fill:none;stroke:#fff;stroke-width:16.67px;"/><path d="M222.685,969.839l57.459,15.396l-15.396,57.459" style="fill:none;stroke:#fff;stroke-width:16.67px;"/><path d="M208.052,996.711l35.664,9.556l-9.556,35.664" style="fill:none;stroke:#fff;stroke-width:16.67px;"/><path d="M209.343,1026.11l121.857,-70.355" style="fill:none;stroke:#fff;stroke-width:16.67px;"/></g><g><path d="M302.931,905.835l10.829,40.415l-40.415,10.829" style="fill:none;stroke:#fff;stroke-width:16.67px;"/><path d="M263.777,868.822l15.396,57.459l-57.459,15.396" style="fill:none;stroke:#fff;stroke-width:16.67px;"/><path d="M233.189,869.585l9.556,35.665l-35.664,9.556" style="fill:none;stroke:#fff;stroke-width:16.67px;"/><path d="M208.372,885.404l121.857,70.354" style="fill:none;stroke:#fff;stroke-width:16.67px;"/></g></g><path d="M536.177,960.384l70.36,-121.868" style="fill:none;stroke:#1978ae;stroke-width:16.67px;"/><path d="M589.592,1065.72l70.36,-121.867" style="fill:none;stroke:#1978ae;stroke-width:16.67px;"/><path d="M733.693,960.384l70.361,-121.868" style="fill:none;stroke:#1978ae;stroke-width:16.67px;"/><path d="M787.109,1065.72l70.36,-121.867" style="fill:none;stroke:#1978ae;stroke-width:16.67px;"/><path d="M931.21,960.384l70.36,-121.868" style="fill:none;stroke:#1978ae;stroke-width:16.67px;"/></g></svg>