<?xml version="1.0" encoding="UTF-8" standalone="no"?><!DOCTYPE svg PUBLIC "-//W3C//DTD SVG 1.1//EN" "http://www.w3.org/Graphics/SVG/1.1/DTD/svg11.dtd"><svg width="100%" height="100%" viewBox="0 0 1255 1255" version="1.1" xmlns="http://www.w3.org/2000/svg" xmlns:xlink="http://www.w3.org/1999/xlink" xml:space="preserve" xmlns:serif="http://www.serif.com/" style="fill-rule:evenodd;clip-rule:evenodd;stroke-linecap:round;stroke-linejoin:round;stroke-miterlimit:1.5;"><rect id="rain-snow-showers-day" x="1.615" y="2.614" width="1250" height="1250" style="fill:none;"/><g id="rain-snow-showers-day1" serif:id="rain-snow-showers-day"><g><g><path d="M395.914,916.611l-29.587,29.586l-29.586,-29.586" style="fill:none;stroke:#fff;stroke-width:16.67px;"/><path d="M408.39,864.196l-42.063,42.063l-42.062,-42.063" style="fill:none;stroke:#fff;stroke-width:16.67px;"/><path d="M392.436,838.088l-26.109,26.108l-26.108,-26.108" style="fill:none;stroke:#fff;stroke-width:16.67px;"/><path d="M366.327,824.505l0,140.709" style="fill:none;stroke:#fff;stroke-width:16.67px;"/></g><g><path d="M423.697,965.694l-40.415,-10.829l10.829,-40.416" style="fill:none;stroke:#fff;stroke-width:16.67px;"/><path d="M475.328,950.292l-57.459,-15.396l15.396,-57.459" style="fill:none;stroke:#fff;stroke-width:16.67px;"/><path d="M489.961,923.42l-35.665,-9.556l9.557,-35.664" style="fill:none;stroke:#fff;stroke-width:16.67px;"/><path d="M488.67,894.019l-121.857,70.354" style="fill:none;stroke:#fff;stroke-width:16.67px;"/></g><g><path d="M395.082,1014.3l-10.83,-40.416l40.416,-10.829" style="fill:none;stroke:#fff;stroke-width:16.67px;"/><path d="M434.236,1051.31l-15.396,-57.459l57.459,-15.396" style="fill:none;stroke:#fff;stroke-width:16.67px;"/><path d="M464.823,1050.55l-9.556,-35.664l35.665,-9.557" style="fill:none;stroke:#fff;stroke-width:16.67px;"/><path d="M489.641,1034.73l-121.857,-70.354" style="fill:none;stroke:#fff;stroke-width:16.67px;"/></g><g><path d="M338.683,1013.82l29.586,-29.586l29.586,29.586" style="fill:none;stroke:#fff;stroke-width:16.67px;"/><path d="M326.206,1066.23l42.063,-42.063l42.063,42.063" style="fill:none;stroke:#fff;stroke-width:16.67px;"/><path d="M342.161,1092.34l26.108,-26.108l26.108,26.108" style="fill:none;stroke:#fff;stroke-width:16.67px;"/><path d="M368.269,1105.92l-0,-140.708" style="fill:none;stroke:#fff;stroke-width:16.67px;"/></g><g><path d="M310.899,964.733l40.416,10.83l-10.829,40.415" style="fill:none;stroke:#fff;stroke-width:16.67px;"/><path d="M259.269,980.136l57.458,15.396l-15.396,57.459" style="fill:none;stroke:#fff;stroke-width:16.67px;"/><path d="M244.636,1007.01l35.664,9.556l-9.556,35.664" style="fill:none;stroke:#fff;stroke-width:16.67px;"/><path d="M245.926,1036.41l121.858,-70.355" style="fill:none;stroke:#fff;stroke-width:16.67px;"/></g><g><path d="M339.515,916.131l10.829,40.415l-40.415,10.829" style="fill:none;stroke:#fff;stroke-width:16.67px;"/><path d="M300.361,879.118l15.396,57.459l-57.459,15.396" style="fill:none;stroke:#fff;stroke-width:16.67px;"/><path d="M269.773,879.881l9.556,35.665l-35.664,9.556" style="fill:none;stroke:#fff;stroke-width:16.67px;"/><path d="M244.956,895.7l121.857,70.354" style="fill:none;stroke:#fff;stroke-width:16.67px;"/></g></g><path d="M572.76,970.68l70.361,-121.868" style="fill:none;stroke:#1978ae;stroke-width:16.67px;"/><path d="M626.176,1076.02l70.36,-121.867" style="fill:none;stroke:#1978ae;stroke-width:16.67px;"/><path d="M770.277,970.68l70.36,-121.868" style="fill:none;stroke:#1978ae;stroke-width:16.67px;"/><path d="M823.693,1076.02l70.36,-121.867" style="fill:none;stroke:#1978ae;stroke-width:16.67px;"/><path d="M967.794,970.68l70.36,-121.868" style="fill:none;stroke:#1978ae;stroke-width:16.67px;"/><g><circle cx="575.108" cy="371.542" r="211.64" style="fill:#ffdb42;"/><circle cx="482.457" cy="490.454" r="185.99" style="fill:#efefef;"/><circle cx="297.773" cy="514.306" r="152.844" style="fill:#f7f7f7;"/><circle cx="918.234" cy="465.273" r="190.066" style="fill:#efefef;"/><circle cx="728.169" cy="592.007" r="190.066" style="fill:#f7f7f7;"/><circle cx="456.563" cy="648.091" r="139.183" style="fill:#fff;"/><circle cx="918.234" cy="612.576" r="169.497" style="fill:#fff;"/></g></g></svg>