<?xml version="1.0" encoding="UTF-8" standalone="no"?><!DOCTYPE svg PUBLIC "-//W3C//DTD SVG 1.1//EN" "http://www.w3.org/Graphics/SVG/1.1/DTD/svg11.dtd"><svg width="100%" height="100%" viewBox="0 0 1255 1255" version="1.1" xmlns="http://www.w3.org/2000/svg" xmlns:xlink="http://www.w3.org/1999/xlink" xml:space="preserve" xmlns:serif="http://www.serif.com/" style="fill-rule:evenodd;clip-rule:evenodd;stroke-linecap:round;stroke-linejoin:round;stroke-miterlimit:1.5;"><rect id="showers-night" x="0.732" y="1.257" width="1250" height="1250" style="fill:none;"/><g id="showers-night1" serif:id="showers-night"><g><g><path d="M557.663,459.053c-3.386,-1.482 -5.491,-4.917 -5.274,-8.607c0.216,-3.69 2.707,-6.855 6.244,-7.932c51.394,-18.132 107.161,-61.692 142.716,-123.952c35.556,-62.261 44.733,-132.427 34.246,-185.907c-0.872,-3.589 0.585,-7.341 3.651,-9.4c3.065,-2.06 7.089,-1.991 10.082,0.173c78.114,57.809 102.416,166.355 53.038,252.821c-49.378,86.466 -155.214,120.694 -244.703,82.804Z" style="fill:#d9d6ca;"/><path d="M652.622,381.849c1.682,4.758 2.598,9.877 2.598,15.209c-0,25.202 -20.461,45.662 -45.663,45.662c-10.639,0 -20.433,-3.646 -28.2,-9.756c24.426,-11.906 49.023,-29.175 71.265,-51.115Z" style="fill:#f9eaa9;"/><path d="M732.518,447.21c-2.021,-6.332 -3.112,-13.078 -3.112,-20.077c0,-36.451 29.594,-66.045 66.045,-66.045c4.813,0 9.506,0.516 14.027,1.495c-2.173,4.609 -4.543,9.167 -7.112,13.666c-17.359,30.398 -41.696,54.34 -69.848,70.961Z" style="fill:#f9eaa9;"/><path d="M825.566,249.337c-3.859,1.76 -8.148,2.741 -12.663,2.741c-16.876,0 -30.578,-13.701 -30.578,-30.577c0,-14.799 10.536,-27.156 24.509,-29.974c9.224,18.192 15.539,37.721 18.732,57.81Z" style="fill:#f9eaa9;"/><path d="M806.834,191.527c9.224,18.192 15.539,37.721 18.732,57.81c-3.859,1.76 -8.148,2.741 -12.663,2.741c-16.876,0 -30.578,-13.701 -30.578,-30.577c0,-14.799 10.536,-27.156 24.509,-29.974Z" style="fill:#aaa696;"/><path d="M809.478,362.583c-2.173,4.609 -4.543,9.167 -7.112,13.666c-17.359,30.398 -41.696,54.34 -69.848,70.961c-2.021,-6.332 -3.112,-13.078 -3.112,-20.077c0,-36.451 29.594,-66.045 66.045,-66.045c4.813,0 9.506,0.516 14.027,1.495Z" style="fill:#b0ada3;"/><path d="M581.357,432.964c24.426,-11.906 49.023,-29.175 71.265,-51.115c1.682,4.758 2.598,9.877 2.598,15.209c-0,25.202 -20.461,45.662 -45.663,45.662c-10.639,0 -20.433,-3.646 -28.2,-9.756Z" style="fill:#918e82;"/></g><circle cx="481.574" cy="527.548" r="185.99" style="fill:#efefef;"/><circle cx="296.891" cy="551.401" r="152.844" style="fill:#f7f7f7;"/><circle cx="917.352" cy="502.368" r="190.066" style="fill:#efefef;"/><circle cx="727.286" cy="629.102" r="190.066" style="fill:#f7f7f7;"/><circle cx="455.681" cy="685.186" r="139.183" style="fill:#fff;"/><circle cx="917.352" cy="649.671" r="169.497" style="fill:#fff;"/></g><path d="M280.286,994.507l70.36,-121.867" style="fill:none;stroke:#1978ae;stroke-width:16.67px;"/><path d="M333.701,1099.85l70.36,-121.867" style="fill:none;stroke:#1978ae;stroke-width:16.67px;"/><path d="M477.802,994.507l70.361,-121.867" style="fill:none;stroke:#1978ae;stroke-width:16.67px;"/><path d="M531.218,1099.85l70.36,-121.867" style="fill:none;stroke:#1978ae;stroke-width:16.67px;"/><path d="M675.319,994.507l70.36,-121.867" style="fill:none;stroke:#1978ae;stroke-width:16.67px;"/><path d="M728.735,1099.85l70.36,-121.867" style="fill:none;stroke:#1978ae;stroke-width:16.67px;"/><path d="M872.836,994.507l70.36,-121.867" style="fill:none;stroke:#1978ae;stroke-width:16.67px;"/></g></svg>