<?xml version="1.0" encoding="UTF-8" standalone="no"?><!DOCTYPE svg PUBLIC "-//W3C//DTD SVG 1.1//EN" "http://www.w3.org/Graphics/SVG/1.1/DTD/svg11.dtd"><svg width="100%" height="100%" viewBox="0 0 1255 1255" version="1.1" xmlns="http://www.w3.org/2000/svg" xmlns:xlink="http://www.w3.org/1999/xlink" xml:space="preserve" xmlns:serif="http://www.serif.com/" style="fill-rule:evenodd;clip-rule:evenodd;stroke-linecap:round;stroke-linejoin:round;stroke-miterlimit:1.5;"><rect id="sleet" x="1.172" y="4.07" width="1250" height="1250" style="fill:none;"/><g id="sleet1" serif:id="sleet"><g><g><path d="M438.52,594.789l-55.447,55.447l-55.447,-55.447" style="fill:none;stroke:#fff;stroke-width:16.67px;"/><path d="M461.902,496.56l-78.829,78.829l-78.83,-78.829" style="fill:none;stroke:#fff;stroke-width:16.67px;"/><path d="M432.002,447.631l-48.929,48.929l-48.929,-48.929" style="fill:none;stroke:#fff;stroke-width:16.67px;"/><path d="M383.073,422.175l-0,263.7" style="fill:none;stroke:#fff;stroke-width:16.67px;"/></g><g><path d="M490.588,686.775l-75.742,-20.295l20.295,-75.742" style="fill:none;stroke:#fff;stroke-width:16.67px;"/><path d="M587.349,657.91l-107.683,-28.854l28.853,-107.682" style="fill:none;stroke:#fff;stroke-width:16.67px;"/><path d="M614.772,607.551l-66.838,-17.909l17.909,-66.838" style="fill:none;stroke:#fff;stroke-width:16.67px;"/><path d="M612.353,552.449l-228.371,131.85" style="fill:none;stroke:#fff;stroke-width:16.67px;"/></g><g><path d="M436.961,777.86l-20.295,-75.741l75.742,-20.295" style="fill:none;stroke:#fff;stroke-width:16.67px;"/><path d="M510.339,847.225l-28.854,-107.683l107.683,-28.853" style="fill:none;stroke:#fff;stroke-width:16.67px;"/><path d="M567.663,845.795l-17.91,-66.838l66.838,-17.909" style="fill:none;stroke:#fff;stroke-width:16.67px;"/><path d="M614.173,816.149l-228.371,-131.85" style="fill:none;stroke:#fff;stroke-width:16.67px;"/></g><g><path d="M331.265,776.96l55.446,-55.446l55.447,55.446" style="fill:none;stroke:#fff;stroke-width:16.67px;"/><path d="M307.882,875.19l78.829,-78.829l78.83,78.829" style="fill:none;stroke:#fff;stroke-width:16.67px;"/><path d="M337.783,924.119l48.928,-48.929l48.929,48.929" style="fill:none;stroke:#fff;stroke-width:16.67px;"/><path d="M386.711,949.575l0,-263.7" style="fill:none;stroke:#fff;stroke-width:16.67px;"/></g><g><path d="M279.196,684.975l75.742,20.295l-20.295,75.742" style="fill:none;stroke:#fff;stroke-width:16.67px;"/><path d="M182.435,713.84l107.683,28.853l-28.853,107.683" style="fill:none;stroke:#fff;stroke-width:16.67px;"/><path d="M155.012,764.199l66.838,17.909l-17.909,66.838" style="fill:none;stroke:#fff;stroke-width:16.67px;"/><path d="M157.431,819.3l228.371,-131.85" style="fill:none;stroke:#fff;stroke-width:16.67px;"/></g><g><path d="M332.823,593.889l20.295,75.742l-75.741,20.295" style="fill:none;stroke:#fff;stroke-width:16.67px;"/><path d="M259.445,524.525l28.854,107.683l-107.683,28.853" style="fill:none;stroke:#fff;stroke-width:16.67px;"/><path d="M202.122,525.955l17.909,66.838l-66.838,17.909" style="fill:none;stroke:#fff;stroke-width:16.67px;"/><path d="M155.612,555.6l228.37,131.85" style="fill:none;stroke:#fff;stroke-width:16.67px;"/></g></g><g><g><path d="M904.042,420.974l-41.399,41.4l-41.4,-41.4" style="fill:none;stroke:#fff;stroke-width:16.67px;"/><path d="M921.5,347.631l-58.857,58.858l-58.858,-58.858" style="fill:none;stroke:#fff;stroke-width:16.67px;"/><path d="M899.175,311.099l-36.532,36.532l-36.533,-36.532" style="fill:none;stroke:#fff;stroke-width:16.67px;"/><path d="M862.643,292.092l-0,196.891" style="fill:none;stroke:#fff;stroke-width:16.67px;"/></g><g><path d="M942.919,489.655l-56.553,-15.153l15.154,-56.552" style="fill:none;stroke:#fff;stroke-width:16.67px;"/><path d="M1015.17,468.103l-80.401,-21.543l21.543,-80.401" style="fill:none;stroke:#fff;stroke-width:16.67px;"/><path d="M1035.64,430.503l-49.905,-13.372l13.372,-49.905" style="fill:none;stroke:#fff;stroke-width:16.67px;"/><path d="M1033.84,389.361l-170.513,98.446" style="fill:none;stroke:#fff;stroke-width:16.67px;"/></g><g><path d="M902.878,557.664l-15.153,-56.552l56.552,-15.153" style="fill:none;stroke:#fff;stroke-width:16.67px;"/><path d="M957.666,609.455l-21.544,-80.401l80.402,-21.543" style="fill:none;stroke:#fff;stroke-width:16.67px;"/><path d="M1000.47,608.388l-13.371,-49.905l49.904,-13.372" style="fill:none;stroke:#fff;stroke-width:16.67px;"/><path d="M1035.19,586.253l-170.513,-98.446" style="fill:none;stroke:#fff;stroke-width:16.67px;"/></g><g><path d="M823.96,556.992l41.399,-41.399l41.4,41.399" style="fill:none;stroke:#fff;stroke-width:16.67px;"/><path d="M806.501,630.335l58.858,-58.857l58.858,58.857" style="fill:none;stroke:#fff;stroke-width:16.67px;"/><path d="M828.827,666.868l36.532,-36.533l36.533,36.533" style="fill:none;stroke:#fff;stroke-width:16.67px;"/><path d="M865.359,685.875l0,-196.892" style="fill:none;stroke:#fff;stroke-width:16.67px;"/></g><g><path d="M785.083,488.311l56.553,15.154l-15.154,56.552" style="fill:none;stroke:#fff;stroke-width:16.67px;"/><path d="M712.837,509.863l80.401,21.544l-21.543,80.401" style="fill:none;stroke:#fff;stroke-width:16.67px;"/><path d="M692.361,547.464l49.905,13.372l-13.372,49.904" style="fill:none;stroke:#fff;stroke-width:16.67px;"/><path d="M694.167,588.606l170.513,-98.446" style="fill:none;stroke:#fff;stroke-width:16.67px;"/></g><g><path d="M825.124,420.302l15.153,56.553l-56.552,15.153" style="fill:none;stroke:#fff;stroke-width:16.67px;"/><path d="M770.336,368.511l21.544,80.402l-80.402,21.543" style="fill:none;stroke:#fff;stroke-width:16.67px;"/><path d="M727.535,369.579l13.372,49.905l-49.904,13.372" style="fill:none;stroke:#fff;stroke-width:16.67px;"/><path d="M692.809,391.714l170.513,98.446" style="fill:none;stroke:#fff;stroke-width:16.67px;"/></g></g></g></svg>