<?xml version="1.0" encoding="UTF-8" standalone="no"?><!DOCTYPE svg PUBLIC "-//W3C//DTD SVG 1.1//EN" "http://www.w3.org/Graphics/SVG/1.1/DTD/svg11.dtd"><svg width="100%" height="100%" viewBox="0 0 1255 1255" version="1.1" xmlns="http://www.w3.org/2000/svg" xmlns:xlink="http://www.w3.org/1999/xlink" xml:space="preserve" xmlns:serif="http://www.serif.com/" style="fill-rule:evenodd;clip-rule:evenodd;stroke-linecap:round;stroke-linejoin:round;stroke-miterlimit:1.5;"><rect id="snow-showers-day" x="1.172" y="2.614" width="1250" height="1250" style="fill:none;"/><g id="snow-shower-day"><g><circle cx="574.666" cy="371.542" r="211.64" style="fill:#ffdb42;"/><circle cx="482.014" cy="490.454" r="185.99" style="fill:#efefef;"/><circle cx="297.331" cy="514.306" r="152.844" style="fill:#f7f7f7;"/><circle cx="917.792" cy="465.273" r="190.066" style="fill:#efefef;"/><circle cx="727.726" cy="592.007" r="190.066" style="fill:#f7f7f7;"/><circle cx="456.121" cy="648.091" r="139.183" style="fill:#fff;"/><circle cx="917.792" cy="612.576" r="169.497" style="fill:#fff;"/></g><g><g><path d="M356.511,914.857l-29.587,29.586l-29.586,-29.586" style="fill:none;stroke:#fff;stroke-width:16.67px;"/><path d="M368.987,862.442l-42.063,42.063l-42.062,-42.063" style="fill:none;stroke:#fff;stroke-width:16.67px;"/><path d="M353.033,836.334l-26.109,26.108l-26.108,-26.108" style="fill:none;stroke:#fff;stroke-width:16.67px;"/><path d="M326.924,822.751l0,140.709" style="fill:none;stroke:#fff;stroke-width:16.67px;"/></g><g><path d="M384.294,963.94l-40.415,-10.829l10.829,-40.416" style="fill:none;stroke:#fff;stroke-width:16.67px;"/><path d="M435.925,948.538l-57.459,-15.396l15.396,-57.459" style="fill:none;stroke:#fff;stroke-width:16.67px;"/><path d="M450.558,921.667l-35.665,-9.557l9.557,-35.664" style="fill:none;stroke:#fff;stroke-width:16.67px;"/><path d="M449.267,892.265l-121.857,70.354" style="fill:none;stroke:#fff;stroke-width:16.67px;"/></g><g><path d="M355.679,1012.54l-10.83,-40.416l40.416,-10.829" style="fill:none;stroke:#fff;stroke-width:16.67px;"/><path d="M394.833,1049.56l-15.396,-57.459l57.459,-15.396" style="fill:none;stroke:#fff;stroke-width:16.67px;"/><path d="M425.42,1048.79l-9.556,-35.664l35.665,-9.556" style="fill:none;stroke:#fff;stroke-width:16.67px;"/><path d="M450.238,1032.97l-121.857,-70.354" style="fill:none;stroke:#fff;stroke-width:16.67px;"/></g><g><path d="M299.28,1012.06l29.586,-29.587l29.586,29.587" style="fill:none;stroke:#fff;stroke-width:16.67px;"/><path d="M286.803,1064.48l42.063,-42.063l42.063,42.063" style="fill:none;stroke:#fff;stroke-width:16.67px;"/><path d="M302.758,1090.59l26.108,-26.108l26.108,26.108" style="fill:none;stroke:#fff;stroke-width:16.67px;"/><path d="M328.866,1104.17l-0,-140.709" style="fill:none;stroke:#fff;stroke-width:16.67px;"/></g><g><path d="M271.496,962.98l40.416,10.829l-10.83,40.415" style="fill:none;stroke:#fff;stroke-width:16.67px;"/><path d="M219.866,978.382l57.458,15.396l-15.396,57.459" style="fill:none;stroke:#fff;stroke-width:16.67px;"/><path d="M205.233,1005.25l35.664,9.556l-9.556,35.665" style="fill:none;stroke:#fff;stroke-width:16.67px;"/><path d="M206.523,1034.65l121.858,-70.354" style="fill:none;stroke:#fff;stroke-width:16.67px;"/></g><g><path d="M300.112,914.377l10.829,40.415l-40.415,10.83" style="fill:none;stroke:#fff;stroke-width:16.67px;"/><path d="M260.958,877.364l15.396,57.459l-57.459,15.396" style="fill:none;stroke:#fff;stroke-width:16.67px;"/><path d="M230.37,878.128l9.556,35.664l-35.664,9.556" style="fill:none;stroke:#fff;stroke-width:16.67px;"/><path d="M205.552,893.946l121.858,70.355" style="fill:none;stroke:#fff;stroke-width:16.67px;"/></g></g><g><g><path d="M654.788,985.212l-29.586,29.586l-29.586,-29.586" style="fill:none;stroke:#fff;stroke-width:16.67px;"/><path d="M667.265,932.797l-42.063,42.063l-42.063,-42.063" style="fill:none;stroke:#fff;stroke-width:16.67px;"/><path d="M651.31,906.689l-26.108,26.108l-26.108,-26.108" style="fill:none;stroke:#fff;stroke-width:16.67px;"/><path d="M625.202,893.105l-0,140.709" style="fill:none;stroke:#fff;stroke-width:16.67px;"/></g><g><path d="M682.571,1034.29l-40.415,-10.829l10.829,-40.415" style="fill:none;stroke:#fff;stroke-width:16.67px;"/><path d="M734.202,1018.89l-57.459,-15.396l15.396,-57.459" style="fill:none;stroke:#fff;stroke-width:16.67px;"/><path d="M748.835,992.021l-35.664,-9.556l9.556,-35.665" style="fill:none;stroke:#fff;stroke-width:16.67px;"/><path d="M747.544,962.619l-121.857,70.354" style="fill:none;stroke:#fff;stroke-width:16.67px;"/></g><g><path d="M653.956,1082.9l-10.829,-40.415l40.415,-10.829" style="fill:none;stroke:#fff;stroke-width:16.67px;"/><path d="M693.11,1119.91l-15.396,-57.459l57.459,-15.396" style="fill:none;stroke:#fff;stroke-width:16.67px;"/><path d="M723.698,1119.15l-9.557,-35.665l35.665,-9.556" style="fill:none;stroke:#fff;stroke-width:16.67px;"/><path d="M748.515,1103.33l-121.857,-70.355" style="fill:none;stroke:#fff;stroke-width:16.67px;"/></g><g><path d="M597.557,1082.42l29.586,-29.586l29.586,29.586" style="fill:none;stroke:#fff;stroke-width:16.67px;"/><path d="M585.08,1134.83l42.063,-42.063l42.063,42.063" style="fill:none;stroke:#fff;stroke-width:16.67px;"/><path d="M601.035,1160.94l26.108,-26.108l26.108,26.108" style="fill:none;stroke:#fff;stroke-width:16.67px;"/><path d="M627.143,1174.52l0,-140.709" style="fill:none;stroke:#fff;stroke-width:16.67px;"/></g><g><path d="M569.774,1033.33l40.415,10.829l-10.829,40.416" style="fill:none;stroke:#fff;stroke-width:16.67px;"/><path d="M518.143,1048.74l57.459,15.396l-15.396,57.459" style="fill:none;stroke:#fff;stroke-width:16.67px;"/><path d="M503.51,1075.61l35.664,9.557l-9.556,35.664" style="fill:none;stroke:#fff;stroke-width:16.67px;"/><path d="M504.801,1105.01l121.857,-70.354" style="fill:none;stroke:#fff;stroke-width:16.67px;"/></g><g><path d="M598.389,984.731l10.829,40.416l-40.415,10.829" style="fill:none;stroke:#fff;stroke-width:16.67px;"/><path d="M559.235,947.719l15.396,57.459l-57.459,15.396" style="fill:none;stroke:#fff;stroke-width:16.67px;"/><path d="M528.647,948.482l9.556,35.664l-35.664,9.556" style="fill:none;stroke:#fff;stroke-width:16.67px;"/><path d="M503.83,964.301l121.857,70.354" style="fill:none;stroke:#fff;stroke-width:16.67px;"/></g></g><g><g><path d="M953.065,914.857l-29.586,29.586l-29.586,-29.586" style="fill:none;stroke:#fff;stroke-width:16.67px;"/><path d="M965.542,862.442l-42.063,42.063l-42.063,-42.063" style="fill:none;stroke:#fff;stroke-width:16.67px;"/><path d="M949.587,836.334l-26.108,26.108l-26.108,-26.108" style="fill:none;stroke:#fff;stroke-width:16.67px;"/><path d="M923.479,822.751l-0,140.709" style="fill:none;stroke:#fff;stroke-width:16.67px;"/></g><g><path d="M980.849,963.94l-40.416,-10.829l10.829,-40.416" style="fill:none;stroke:#fff;stroke-width:16.67px;"/><path d="M1032.48,948.538l-57.459,-15.396l15.397,-57.459" style="fill:none;stroke:#fff;stroke-width:16.67px;"/><path d="M1047.11,921.667l-35.664,-9.557l9.556,-35.664" style="fill:none;stroke:#fff;stroke-width:16.67px;"/><path d="M1045.82,892.265l-121.858,70.354" style="fill:none;stroke:#fff;stroke-width:16.67px;"/></g><g><path d="M952.233,1012.54l-10.829,-40.416l40.415,-10.829" style="fill:none;stroke:#fff;stroke-width:16.67px;"/><path d="M991.387,1049.56l-15.396,-57.459l57.459,-15.396" style="fill:none;stroke:#fff;stroke-width:16.67px;"/><path d="M1021.98,1048.79l-9.556,-35.664l35.664,-9.556" style="fill:none;stroke:#fff;stroke-width:16.67px;"/><path d="M1046.79,1032.97l-121.857,-70.354" style="fill:none;stroke:#fff;stroke-width:16.67px;"/></g><g><path d="M895.834,1012.06l29.586,-29.587l29.587,29.587" style="fill:none;stroke:#fff;stroke-width:16.67px;"/><path d="M883.358,1064.48l42.062,-42.063l42.063,42.063" style="fill:none;stroke:#fff;stroke-width:16.67px;"/><path d="M899.312,1090.59l26.108,-26.108l26.109,26.108" style="fill:none;stroke:#fff;stroke-width:16.67px;"/><path d="M925.42,1104.17l0,-140.709" style="fill:none;stroke:#fff;stroke-width:16.67px;"/></g><g><path d="M868.051,962.98l40.415,10.829l-10.829,40.415" style="fill:none;stroke:#fff;stroke-width:16.67px;"/><path d="M816.42,978.382l57.459,15.396l-15.396,57.459" style="fill:none;stroke:#fff;stroke-width:16.67px;"/><path d="M801.787,1005.25l35.664,9.556l-9.556,35.665" style="fill:none;stroke:#fff;stroke-width:16.67px;"/><path d="M803.078,1034.65l121.857,-70.354" style="fill:none;stroke:#fff;stroke-width:16.67px;"/></g><g><path d="M896.666,914.377l10.829,40.415l-40.415,10.83" style="fill:none;stroke:#fff;stroke-width:16.67px;"/><path d="M857.512,877.364l15.396,57.459l-57.459,15.396" style="fill:none;stroke:#fff;stroke-width:16.67px;"/><path d="M826.924,878.128l9.557,35.664l-35.665,9.556" style="fill:none;stroke:#fff;stroke-width:16.67px;"/><path d="M802.107,893.946l121.857,70.355" style="fill:none;stroke:#fff;stroke-width:16.67px;"/></g></g></g></svg>