<?xml version="1.0" encoding="UTF-8" standalone="no"?><!DOCTYPE svg PUBLIC "-//W3C//DTD SVG 1.1//EN" "http://www.w3.org/Graphics/SVG/1.1/DTD/svg11.dtd"><svg width="100%" height="100%" viewBox="0 0 1255 1255" version="1.1" xmlns="http://www.w3.org/2000/svg" xmlns:xlink="http://www.w3.org/1999/xlink" xml:space="preserve" xmlns:serif="http://www.serif.com/" style="fill-rule:evenodd;clip-rule:evenodd;stroke-linecap:round;stroke-linejoin:round;stroke-miterlimit:1.5;"><rect id="snow" x="1.172" y="1.681" width="1250" height="1250" style="fill:none;"/><g><g><circle cx="441.55" cy="380.343" r="210.397" style="fill:#eaeaea;"/><circle cx="787.109" cy="364.98" r="162.685" style="fill:#eaeaea;"/><circle cx="536.734" cy="450.007" r="190.066" style="fill:#f0f0f0;"/><circle cx="892.474" cy="416.009" r="145.078" style="fill:#f0f0f0;"/><circle cx="297.969" cy="545.679" r="190.066" style="fill:#f8f8f8;"/><circle cx="766.92" cy="570.409" r="190.066" style="fill:#f7f7f7;"/><circle cx="496.833" cy="625.692" r="155.114" style="fill:#fff;"/><circle cx="1003.88" cy="542.767" r="140.561" style="fill:#fff;"/></g><g><g><path d="M342.302,906.315l-29.586,29.586l-29.586,-29.586" style="fill:none;stroke:#fff;stroke-width:16.67px;"/><path d="M354.779,853.9l-42.063,42.063l-42.063,-42.063" style="fill:none;stroke:#fff;stroke-width:16.67px;"/><path d="M338.824,827.792l-26.108,26.108l-26.108,-26.108" style="fill:none;stroke:#fff;stroke-width:16.67px;"/><path d="M312.716,814.209l-0,140.708" style="fill:none;stroke:#fff;stroke-width:16.67px;"/></g><g><path d="M370.085,955.398l-40.415,-10.83l10.829,-40.415" style="fill:none;stroke:#fff;stroke-width:16.67px;"/><path d="M421.716,939.996l-57.459,-15.396l15.396,-57.459" style="fill:none;stroke:#fff;stroke-width:16.67px;"/><path d="M436.349,913.124l-35.664,-9.556l9.556,-35.664" style="fill:none;stroke:#fff;stroke-width:16.67px;"/><path d="M435.058,883.722l-121.857,70.355" style="fill:none;stroke:#fff;stroke-width:16.67px;"/></g><g><path d="M341.47,1004l-10.829,-40.415l40.415,-10.829" style="fill:none;stroke:#fff;stroke-width:16.67px;"/><path d="M380.624,1041.01l-15.396,-57.459l57.459,-15.396" style="fill:none;stroke:#fff;stroke-width:16.67px;"/><path d="M411.212,1040.25l-9.556,-35.665l35.664,-9.556" style="fill:none;stroke:#fff;stroke-width:16.67px;"/><path d="M436.029,1024.43l-121.857,-70.354" style="fill:none;stroke:#fff;stroke-width:16.67px;"/></g><g><path d="M285.071,1003.52l29.586,-29.586l29.586,29.586" style="fill:none;stroke:#fff;stroke-width:16.67px;"/><path d="M272.594,1055.93l42.063,-42.063l42.063,42.063" style="fill:none;stroke:#fff;stroke-width:16.67px;"/><path d="M288.549,1082.04l26.108,-26.108l26.108,26.108" style="fill:none;stroke:#fff;stroke-width:16.67px;"/><path d="M314.657,1095.63l0,-140.709" style="fill:none;stroke:#fff;stroke-width:16.67px;"/></g><g><path d="M257.288,954.437l40.415,10.829l-10.829,40.416" style="fill:none;stroke:#fff;stroke-width:16.67px;"/><path d="M205.657,969.839l57.459,15.396l-15.396,57.459" style="fill:none;stroke:#fff;stroke-width:16.67px;"/><path d="M191.024,996.711l35.664,9.556l-9.556,35.664" style="fill:none;stroke:#fff;stroke-width:16.67px;"/><path d="M192.315,1026.11l121.857,-70.355" style="fill:none;stroke:#fff;stroke-width:16.67px;"/></g><g><path d="M285.903,905.835l10.829,40.415l-40.415,10.829" style="fill:none;stroke:#fff;stroke-width:16.67px;"/><path d="M246.749,868.822l15.396,57.459l-57.459,15.396" style="fill:none;stroke:#fff;stroke-width:16.67px;"/><path d="M216.161,869.585l9.557,35.665l-35.665,9.556" style="fill:none;stroke:#fff;stroke-width:16.67px;"/><path d="M191.344,885.404l121.857,70.354" style="fill:none;stroke:#fff;stroke-width:16.67px;"/></g></g><g><g><path d="M640.579,976.669l-29.586,29.586l-29.586,-29.586" style="fill:none;stroke:#fff;stroke-width:16.67px;"/><path d="M653.056,924.254l-42.063,42.063l-42.063,-42.063" style="fill:none;stroke:#fff;stroke-width:16.67px;"/><path d="M637.101,898.146l-26.108,26.108l-26.108,-26.108" style="fill:none;stroke:#fff;stroke-width:16.67px;"/><path d="M610.993,884.563l0,140.709" style="fill:none;stroke:#fff;stroke-width:16.67px;"/></g><g><path d="M668.363,1025.75l-40.416,-10.829l10.83,-40.416" style="fill:none;stroke:#fff;stroke-width:16.67px;"/><path d="M719.993,1010.35l-57.458,-15.396l15.396,-57.459" style="fill:none;stroke:#fff;stroke-width:16.67px;"/><path d="M734.626,983.479l-35.664,-9.557l9.556,-35.664" style="fill:none;stroke:#fff;stroke-width:16.67px;"/><path d="M733.336,954.077l-121.858,70.354" style="fill:none;stroke:#fff;stroke-width:16.67px;"/></g><g><path d="M639.747,1074.36l-10.829,-40.416l40.415,-10.829" style="fill:none;stroke:#fff;stroke-width:16.67px;"/><path d="M678.901,1111.37l-15.396,-57.459l57.459,-15.396" style="fill:none;stroke:#fff;stroke-width:16.67px;"/><path d="M709.489,1110.6l-9.556,-35.664l35.664,-9.556" style="fill:none;stroke:#fff;stroke-width:16.67px;"/><path d="M734.307,1094.79l-121.858,-70.354" style="fill:none;stroke:#fff;stroke-width:16.67px;"/></g><g><path d="M583.348,1073.88l29.587,-29.587l29.586,29.587" style="fill:none;stroke:#fff;stroke-width:16.67px;"/><path d="M570.872,1126.29l42.063,-42.063l42.062,42.063" style="fill:none;stroke:#fff;stroke-width:16.67px;"/><path d="M586.826,1152.4l26.109,-26.108l26.108,26.108" style="fill:none;stroke:#fff;stroke-width:16.67px;"/><path d="M612.935,1165.98l-0,-140.709" style="fill:none;stroke:#fff;stroke-width:16.67px;"/></g><g><path d="M555.565,1024.79l40.415,10.829l-10.829,40.415" style="fill:none;stroke:#fff;stroke-width:16.67px;"/><path d="M503.934,1040.19l57.459,15.396l-15.396,57.459" style="fill:none;stroke:#fff;stroke-width:16.67px;"/><path d="M489.301,1067.07l35.665,9.556l-9.557,35.665" style="fill:none;stroke:#fff;stroke-width:16.67px;"/><path d="M490.592,1096.47l121.857,-70.354" style="fill:none;stroke:#fff;stroke-width:16.67px;"/></g><g><path d="M584.18,976.189l10.83,40.415l-40.416,10.83" style="fill:none;stroke:#fff;stroke-width:16.67px;"/><path d="M545.026,939.176l15.396,57.459l-57.459,15.396" style="fill:none;stroke:#fff;stroke-width:16.67px;"/><path d="M514.439,939.94l9.556,35.664l-35.665,9.556" style="fill:none;stroke:#fff;stroke-width:16.67px;"/><path d="M489.621,955.758l121.857,70.355" style="fill:none;stroke:#fff;stroke-width:16.67px;"/></g></g><g><g><path d="M938.856,864.348l-29.586,29.586l-29.586,-29.586" style="fill:none;stroke:#fff;stroke-width:16.67px;"/><path d="M951.333,811.933l-42.063,42.063l-42.063,-42.063" style="fill:none;stroke:#fff;stroke-width:16.67px;"/><path d="M935.378,785.825l-26.108,26.108l-26.108,-26.108" style="fill:none;stroke:#fff;stroke-width:16.67px;"/><path d="M909.27,772.242l0,140.709" style="fill:none;stroke:#fff;stroke-width:16.67px;"/></g><g><path d="M966.64,913.431l-40.415,-10.829l10.829,-40.416" style="fill:none;stroke:#fff;stroke-width:16.67px;"/><path d="M1018.27,898.029l-57.459,-15.396l15.396,-57.459" style="fill:none;stroke:#fff;stroke-width:16.67px;"/><path d="M1032.9,871.157l-35.665,-9.556l9.557,-35.664" style="fill:none;stroke:#fff;stroke-width:16.67px;"/><path d="M1031.61,841.756l-121.857,70.354" style="fill:none;stroke:#fff;stroke-width:16.67px;"/></g><g><path d="M938.025,962.034l-10.83,-40.416l40.416,-10.829" style="fill:none;stroke:#fff;stroke-width:16.67px;"/><path d="M977.179,999.046l-15.396,-57.459l57.459,-15.396" style="fill:none;stroke:#fff;stroke-width:16.67px;"/><path d="M1007.77,998.283l-9.556,-35.664l35.664,-9.557" style="fill:none;stroke:#fff;stroke-width:16.67px;"/><path d="M1032.58,982.464l-121.858,-70.354" style="fill:none;stroke:#fff;stroke-width:16.67px;"/></g><g><path d="M881.626,961.553l29.586,-29.586l29.586,29.586" style="fill:none;stroke:#fff;stroke-width:16.67px;"/><path d="M869.149,1013.97l42.063,-42.063l42.063,42.063" style="fill:none;stroke:#fff;stroke-width:16.67px;"/><path d="M885.104,1040.08l26.108,-26.108l26.108,26.108" style="fill:none;stroke:#fff;stroke-width:16.67px;"/><path d="M911.212,1053.66l-0,-140.708" style="fill:none;stroke:#fff;stroke-width:16.67px;"/></g><g><path d="M853.842,912.47l40.416,10.83l-10.83,40.415" style="fill:none;stroke:#fff;stroke-width:16.67px;"/><path d="M802.211,927.873l57.459,15.396l-15.396,57.458" style="fill:none;stroke:#fff;stroke-width:16.67px;"/><path d="M787.579,954.744l35.664,9.556l-9.556,35.664" style="fill:none;stroke:#fff;stroke-width:16.67px;"/><path d="M788.869,984.146l121.857,-70.355" style="fill:none;stroke:#fff;stroke-width:16.67px;"/></g><g><path d="M882.458,863.868l10.829,40.415l-40.416,10.829" style="fill:none;stroke:#fff;stroke-width:16.67px;"/><path d="M843.304,826.855l15.396,57.459l-57.459,15.396" style="fill:none;stroke:#fff;stroke-width:16.67px;"/><path d="M812.716,827.618l9.556,35.665l-35.664,9.556" style="fill:none;stroke:#fff;stroke-width:16.67px;"/><path d="M787.898,843.437l121.858,70.354" style="fill:none;stroke:#fff;stroke-width:16.67px;"/></g></g></g></svg>