<?xml version="1.0" encoding="UTF-8" standalone="no"?><!DOCTYPE svg PUBLIC "-//W3C//DTD SVG 1.1//EN" "http://www.w3.org/Graphics/SVG/1.1/DTD/svg11.dtd"><svg width="100%" height="100%" viewBox="0 0 1255 1255" version="1.1" xmlns="http://www.w3.org/2000/svg" xmlns:xlink="http://www.w3.org/1999/xlink" xml:space="preserve" xmlns:serif="http://www.serif.com/" style="fill-rule:evenodd;clip-rule:evenodd;stroke-linecap:round;stroke-linejoin:round;stroke-miterlimit:1.5;"><rect id="snow-showers-night" x="1.172" y="1.257" width="1250" height="1250" style="fill:none;"/><clipPath id="_clip1"><rect x="1.172" y="1.257" width="1250" height="1250"/></clipPath><g clip-path="url(#_clip1)"><g id="snow-shower-night"><g><g><path d="M1180.84,1588.55c-3.387,-1.482 -5.492,-4.917 -5.275,-8.607c0.216,-3.69 2.708,-6.855 6.244,-7.932c51.394,-18.132 107.161,-61.692 142.717,-123.952c35.555,-62.261 44.732,-132.427 34.245,-185.907c-0.872,-3.589 0.585,-7.341 3.651,-9.4c3.065,-2.06 7.089,-1.991 10.082,0.173c78.114,57.809 102.416,166.355 53.038,252.821c-49.378,86.466 -155.214,120.694 -244.702,82.804Z" style="fill:#d9d6ca;"/></g></g></g><g id="thunder-showers-night"><g><g><path d="M555.841,459.053c-3.387,-1.482 -5.492,-4.917 -5.275,-8.607c0.216,-3.69 2.708,-6.855 6.244,-7.932c51.394,-18.132 107.161,-61.692 142.717,-123.952c35.555,-62.261 44.732,-132.427 34.245,-185.907c-0.872,-3.589 0.585,-7.341 3.651,-9.4c3.065,-2.06 7.089,-1.991 10.082,0.173c78.114,57.809 102.416,166.355 53.038,252.821c-49.378,86.466 -155.214,120.694 -244.702,82.804Z" style="fill:#d9d6ca;"/><path d="M650.799,381.849c1.682,4.758 2.598,9.877 2.598,15.209c0,25.202 -20.461,45.662 -45.663,45.662c-10.639,0 -20.433,-3.646 -28.199,-9.756c24.425,-11.906 49.022,-29.175 71.264,-51.115Z" style="fill:#f9eaa9;"/><path d="M730.695,447.21c-2.021,-6.332 -3.112,-13.078 -3.112,-20.077c0,-36.451 29.594,-66.045 66.046,-66.045c4.812,0 9.505,0.516 14.026,1.495c-2.173,4.609 -4.542,9.167 -7.112,13.666c-17.359,30.398 -41.696,54.34 -69.848,70.961Z" style="fill:#f9eaa9;"/><path d="M823.743,249.337c-3.859,1.76 -8.147,2.741 -12.663,2.741c-16.876,0 -30.577,-13.701 -30.577,-30.577c-0,-14.799 10.535,-27.156 24.508,-29.974c9.225,18.192 15.539,37.721 18.732,57.81Z" style="fill:#f9eaa9;"/><path d="M805.011,191.527c9.225,18.192 15.539,37.721 18.732,57.81c-3.859,1.76 -8.147,2.741 -12.663,2.741c-16.876,0 -30.577,-13.701 -30.577,-30.577c-0,-14.799 10.535,-27.156 24.508,-29.974Z" style="fill:#aaa696;"/><path d="M807.655,362.583c-2.173,4.609 -4.542,9.167 -7.112,13.666c-17.359,30.398 -41.696,54.34 -69.848,70.961c-2.021,-6.332 -3.112,-13.078 -3.112,-20.077c0,-36.451 29.594,-66.045 66.046,-66.045c4.812,0 9.505,0.516 14.026,1.495Z" style="fill:#b0ada3;"/><path d="M579.535,432.964c24.425,-11.906 49.022,-29.175 71.264,-51.115c1.682,4.758 2.598,9.877 2.598,15.209c0,25.202 -20.461,45.662 -45.663,45.662c-10.639,0 -20.433,-3.646 -28.199,-9.756Z" style="fill:#918e82;"/></g><circle cx="482.014" cy="529.05" r="185.99" style="fill:#efefef;"/><circle cx="297.331" cy="552.903" r="152.844" style="fill:#f7f7f7;"/><circle cx="917.792" cy="503.87" r="190.066" style="fill:#efefef;"/><circle cx="727.726" cy="630.604" r="190.066" style="fill:#f7f7f7;"/><circle cx="456.121" cy="686.688" r="139.183" style="fill:#fff;"/><circle cx="917.792" cy="651.173" r="169.497" style="fill:#fff;"/></g><g><g><path d="M356.511,913.501l-29.587,29.586l-29.586,-29.586" style="fill:none;stroke:#fff;stroke-width:16.67px;"/><path d="M368.987,861.086l-42.063,42.063l-42.062,-42.063" style="fill:none;stroke:#fff;stroke-width:16.67px;"/><path d="M353.033,834.978l-26.109,26.108l-26.108,-26.108" style="fill:none;stroke:#fff;stroke-width:16.67px;"/><path d="M326.924,821.395l0,140.708" style="fill:none;stroke:#fff;stroke-width:16.67px;"/></g><g><path d="M384.294,962.583l-40.415,-10.829l10.829,-40.415" style="fill:none;stroke:#fff;stroke-width:16.67px;"/><path d="M435.925,947.181l-57.459,-15.396l15.396,-57.459" style="fill:none;stroke:#fff;stroke-width:16.67px;"/><path d="M450.558,920.31l-35.665,-9.556l9.557,-35.664" style="fill:none;stroke:#fff;stroke-width:16.67px;"/><path d="M449.267,890.908l-121.857,70.355" style="fill:none;stroke:#fff;stroke-width:16.67px;"/></g><g><path d="M355.679,1011.19l-10.83,-40.415l40.416,-10.829" style="fill:none;stroke:#fff;stroke-width:16.67px;"/><path d="M394.833,1048.2l-15.396,-57.459l57.459,-15.396" style="fill:none;stroke:#fff;stroke-width:16.67px;"/><path d="M425.42,1047.44l-9.556,-35.665l35.665,-9.556" style="fill:none;stroke:#fff;stroke-width:16.67px;"/><path d="M450.238,1031.62l-121.857,-70.354" style="fill:none;stroke:#fff;stroke-width:16.67px;"/></g><g><path d="M299.28,1010.71l29.586,-29.586l29.586,29.586" style="fill:none;stroke:#fff;stroke-width:16.67px;"/><path d="M286.803,1063.12l42.063,-42.063l42.063,42.063" style="fill:none;stroke:#fff;stroke-width:16.67px;"/><path d="M302.758,1089.23l26.108,-26.108l26.108,26.108" style="fill:none;stroke:#fff;stroke-width:16.67px;"/><path d="M328.866,1102.81l-0,-140.709" style="fill:none;stroke:#fff;stroke-width:16.67px;"/></g><g><path d="M271.496,961.623l40.416,10.829l-10.83,40.416" style="fill:none;stroke:#fff;stroke-width:16.67px;"/><path d="M219.866,977.025l57.458,15.396l-15.396,57.459" style="fill:none;stroke:#fff;stroke-width:16.67px;"/><path d="M205.233,1003.9l35.664,9.557l-9.556,35.664" style="fill:none;stroke:#fff;stroke-width:16.67px;"/><path d="M206.523,1033.3l121.858,-70.354" style="fill:none;stroke:#fff;stroke-width:16.67px;"/></g><g><path d="M300.112,913.02l10.829,40.416l-40.415,10.829" style="fill:none;stroke:#fff;stroke-width:16.67px;"/><path d="M260.958,876.008l15.396,57.459l-57.459,15.396" style="fill:none;stroke:#fff;stroke-width:16.67px;"/><path d="M230.37,876.771l9.556,35.664l-35.664,9.556" style="fill:none;stroke:#fff;stroke-width:16.67px;"/><path d="M205.552,892.59l121.858,70.354" style="fill:none;stroke:#fff;stroke-width:16.67px;"/></g></g><g><g><path d="M654.788,983.855l-29.586,29.586l-29.586,-29.586" style="fill:none;stroke:#fff;stroke-width:16.67px;"/><path d="M667.265,931.44l-42.063,42.063l-42.063,-42.063" style="fill:none;stroke:#fff;stroke-width:16.67px;"/><path d="M651.31,905.332l-26.108,26.108l-26.108,-26.108" style="fill:none;stroke:#fff;stroke-width:16.67px;"/><path d="M625.202,891.749l-0,140.709" style="fill:none;stroke:#fff;stroke-width:16.67px;"/></g><g><path d="M682.571,1032.94l-40.415,-10.829l10.829,-40.416" style="fill:none;stroke:#fff;stroke-width:16.67px;"/><path d="M734.202,1017.54l-57.459,-15.396l15.396,-57.459" style="fill:none;stroke:#fff;stroke-width:16.67px;"/><path d="M748.835,990.664l-35.664,-9.556l9.556,-35.664" style="fill:none;stroke:#fff;stroke-width:16.67px;"/><path d="M747.544,961.263l-121.857,70.354" style="fill:none;stroke:#fff;stroke-width:16.67px;"/></g><g><path d="M653.956,1081.54l-10.829,-40.416l40.415,-10.829" style="fill:none;stroke:#fff;stroke-width:16.67px;"/><path d="M693.11,1118.55l-15.396,-57.459l57.459,-15.396" style="fill:none;stroke:#fff;stroke-width:16.67px;"/><path d="M723.698,1117.79l-9.557,-35.664l35.665,-9.557" style="fill:none;stroke:#fff;stroke-width:16.67px;"/><path d="M748.515,1101.97l-121.857,-70.354" style="fill:none;stroke:#fff;stroke-width:16.67px;"/></g><g><path d="M597.557,1081.06l29.586,-29.586l29.586,29.586" style="fill:none;stroke:#fff;stroke-width:16.67px;"/><path d="M585.08,1133.48l42.063,-42.063l42.063,42.063" style="fill:none;stroke:#fff;stroke-width:16.67px;"/><path d="M601.035,1159.58l26.108,-26.108l26.108,26.108" style="fill:none;stroke:#fff;stroke-width:16.67px;"/><path d="M627.143,1173.17l0,-140.708" style="fill:none;stroke:#fff;stroke-width:16.67px;"/></g><g><path d="M569.774,1031.98l40.415,10.83l-10.829,40.415" style="fill:none;stroke:#fff;stroke-width:16.67px;"/><path d="M518.143,1047.38l57.459,15.397l-15.396,57.458" style="fill:none;stroke:#fff;stroke-width:16.67px;"/><path d="M503.51,1074.25l35.664,9.556l-9.556,35.664" style="fill:none;stroke:#fff;stroke-width:16.67px;"/><path d="M504.801,1103.65l121.857,-70.355" style="fill:none;stroke:#fff;stroke-width:16.67px;"/></g><g><path d="M598.389,983.375l10.829,40.415l-40.415,10.829" style="fill:none;stroke:#fff;stroke-width:16.67px;"/><path d="M559.235,946.362l15.396,57.459l-57.459,15.396" style="fill:none;stroke:#fff;stroke-width:16.67px;"/><path d="M528.647,947.125l9.556,35.665l-35.664,9.556" style="fill:none;stroke:#fff;stroke-width:16.67px;"/><path d="M503.83,962.944l121.857,70.354" style="fill:none;stroke:#fff;stroke-width:16.67px;"/></g></g><g><g><path d="M953.065,945.164l-29.586,29.586l-29.586,-29.586" style="fill:none;stroke:#fff;stroke-width:16.67px;"/><path d="M965.542,892.75l-42.063,42.062l-42.063,-42.062" style="fill:none;stroke:#fff;stroke-width:16.67px;"/><path d="M949.587,866.642l-26.108,26.108l-26.108,-26.108" style="fill:none;stroke:#fff;stroke-width:16.67px;"/><path d="M923.479,853.058l-0,140.709" style="fill:none;stroke:#fff;stroke-width:16.67px;"/></g><g><path d="M980.849,994.247l-40.416,-10.829l10.829,-40.415" style="fill:none;stroke:#fff;stroke-width:16.67px;"/><path d="M1032.48,978.845l-57.459,-15.396l15.397,-57.459" style="fill:none;stroke:#fff;stroke-width:16.67px;"/><path d="M1047.11,951.974l-35.664,-9.556l9.556,-35.665" style="fill:none;stroke:#fff;stroke-width:16.67px;"/><path d="M1045.82,922.572l-121.858,70.354" style="fill:none;stroke:#fff;stroke-width:16.67px;"/></g><g><path d="M952.233,1042.85l-10.829,-40.415l40.415,-10.83" style="fill:none;stroke:#fff;stroke-width:16.67px;"/><path d="M991.387,1079.86l-15.396,-57.458l57.459,-15.397" style="fill:none;stroke:#fff;stroke-width:16.67px;"/><path d="M1021.98,1079.1l-9.556,-35.664l35.664,-9.556" style="fill:none;stroke:#fff;stroke-width:16.67px;"/><path d="M1046.79,1063.28l-121.857,-70.355" style="fill:none;stroke:#fff;stroke-width:16.67px;"/></g><g><path d="M895.834,1042.37l29.586,-29.586l29.587,29.586" style="fill:none;stroke:#fff;stroke-width:16.67px;"/><path d="M883.358,1094.78l42.062,-42.062l42.063,42.062" style="fill:none;stroke:#fff;stroke-width:16.67px;"/><path d="M899.312,1120.89l26.108,-26.108l26.109,26.108" style="fill:none;stroke:#fff;stroke-width:16.67px;"/><path d="M925.42,1134.48l0,-140.709" style="fill:none;stroke:#fff;stroke-width:16.67px;"/></g><g><path d="M868.051,993.287l40.415,10.829l-10.829,40.415" style="fill:none;stroke:#fff;stroke-width:16.67px;"/><path d="M816.42,1008.69l57.459,15.396l-15.396,57.459" style="fill:none;stroke:#fff;stroke-width:16.67px;"/><path d="M801.787,1035.56l35.664,9.556l-9.556,35.665" style="fill:none;stroke:#fff;stroke-width:16.67px;"/><path d="M803.078,1064.96l121.857,-70.354" style="fill:none;stroke:#fff;stroke-width:16.67px;"/></g><g><path d="M896.666,944.684l10.829,40.415l-40.415,10.83" style="fill:none;stroke:#fff;stroke-width:16.67px;"/><path d="M857.512,907.672l15.396,57.458l-57.459,15.396" style="fill:none;stroke:#fff;stroke-width:16.67px;"/><path d="M826.924,908.435l9.557,35.664l-35.665,9.556" style="fill:none;stroke:#fff;stroke-width:16.67px;"/><path d="M802.107,924.253l121.857,70.355" style="fill:none;stroke:#fff;stroke-width:16.67px;"/></g></g></g></g></svg>