<?xml version="1.0" encoding="UTF-8" standalone="no"?><!DOCTYPE svg PUBLIC "-//W3C//DTD SVG 1.1//EN" "http://www.w3.org/Graphics/SVG/1.1/DTD/svg11.dtd"><svg width="100%" height="100%" viewBox="0 0 1255 1255" version="1.1" xmlns="http://www.w3.org/2000/svg" xmlns:xlink="http://www.w3.org/1999/xlink" xml:space="preserve" xmlns:serif="http://www.serif.com/" style="fill-rule:evenodd;clip-rule:evenodd;stroke-linecap:round;stroke-linejoin:round;stroke-miterlimit:1.5;"><rect id="thunder-showers-night" x="2.51" y="1.257" width="1250" height="1250" style="fill:none;"/><g id="thunder-showers-night1" serif:id="thunder-showers-night"><g><g><path d="M557.178,459.053c-3.386,-1.482 -5.491,-4.917 -5.275,-8.607c0.216,-3.69 2.708,-6.855 6.244,-7.932c51.394,-18.132 107.162,-61.692 142.717,-123.952c35.555,-62.261 44.733,-132.427 34.245,-185.907c-0.871,-3.589 0.586,-7.341 3.651,-9.4c3.066,-2.06 7.09,-1.991 10.083,0.173c78.114,57.809 102.416,166.355 53.038,252.821c-49.378,86.466 -155.215,120.694 -244.703,82.804Z" style="fill:#d9d6ca;"/><path d="M652.136,381.849c1.683,4.758 2.599,9.877 2.599,15.209c-0,25.202 -20.461,45.662 -45.663,45.662c-10.639,0 -20.433,-3.646 -28.2,-9.756c24.425,-11.906 49.022,-29.175 71.264,-51.115Z" style="fill:#f9eaa9;"/><path d="M732.033,447.21c-2.021,-6.332 -3.112,-13.078 -3.112,-20.077c-0,-36.451 29.594,-66.045 66.045,-66.045c4.813,0 9.506,0.516 14.027,1.495c-2.173,4.609 -4.543,9.167 -7.112,13.666c-17.36,30.398 -41.697,54.34 -69.848,70.961Z" style="fill:#f9eaa9;"/><path d="M825.081,249.337c-3.86,1.76 -8.148,2.741 -12.663,2.741c-16.877,0 -30.578,-13.701 -30.578,-30.577c0,-14.799 10.536,-27.156 24.509,-29.974c9.224,18.192 15.538,37.721 18.732,57.81Z" style="fill:#f9eaa9;"/><path d="M806.349,191.527c9.224,18.192 15.538,37.721 18.732,57.81c-3.86,1.76 -8.148,2.741 -12.663,2.741c-16.877,0 -30.578,-13.701 -30.578,-30.577c0,-14.799 10.536,-27.156 24.509,-29.974Z" style="fill:#aaa696;"/><path d="M808.993,362.583c-2.173,4.609 -4.543,9.167 -7.112,13.666c-17.36,30.398 -41.697,54.34 -69.848,70.961c-2.021,-6.332 -3.112,-13.078 -3.112,-20.077c-0,-36.451 29.594,-66.045 66.045,-66.045c4.813,0 9.506,0.516 14.027,1.495Z" style="fill:#b0ada3;"/><path d="M580.872,432.964c24.425,-11.906 49.022,-29.175 71.264,-51.115c1.683,4.758 2.599,9.877 2.599,15.209c-0,25.202 -20.461,45.662 -45.663,45.662c-10.639,0 -20.433,-3.646 -28.2,-9.756Z" style="fill:#918e82;"/></g><circle cx="483.352" cy="529.05" r="185.99" style="fill:#efefef;"/><circle cx="298.669" cy="552.903" r="152.844" style="fill:#f7f7f7;"/><circle cx="919.13" cy="503.87" r="190.066" style="fill:#efefef;"/><circle cx="729.064" cy="630.604" r="190.066" style="fill:#f7f7f7;"/><circle cx="457.458" cy="686.688" r="139.183" style="fill:#fff;"/><circle cx="919.13" cy="651.173" r="169.497" style="fill:#fff;"/></g><path d="M300.463,996.184l70.361,-121.867" style="fill:none;stroke:#1978ae;stroke-width:16.67px;"/><path d="M353.879,1101.53l70.36,-121.868" style="fill:none;stroke:#1978ae;stroke-width:16.67px;"/><path d="M604.229,851.871c-2.007,-0 -3.835,1.155 -4.696,2.968c-7.942,16.725 -47.17,99.333 -59.222,124.711c-0.765,1.61 -0.651,3.501 0.302,5.008c0.953,1.507 2.611,2.421 4.394,2.421c13.193,-0 38.943,-0 52.193,-0c1.792,-0 3.458,0.923 4.408,2.443c0.95,1.519 1.051,3.421 0.266,5.032c-10.896,22.369 -43.666,89.648 -62.751,128.829c-1.118,2.296 -0.403,5.064 1.687,6.531c2.09,1.468 4.937,1.2 6.716,-0.632c45.775,-47.122 147.602,-151.947 177.752,-182.984c1.455,-1.498 1.873,-3.723 1.059,-5.647c-0.813,-1.924 -2.699,-3.174 -4.788,-3.174c-17.7,-0 -49.909,-0 -65.265,-0c-1.819,-0 -3.505,-0.951 -4.447,-2.507c-0.942,-1.556 -1.003,-3.491 -0.16,-5.102c8.488,-16.225 28.281,-54.064 36.768,-70.289c0.843,-1.611 0.782,-3.546 -0.16,-5.102c-0.942,-1.556 -2.628,-2.506 -4.447,-2.506c-19.563,-0 -66.746,-0 -79.609,-0Z" style="fill:#ffdb42;"/><path d="M748.912,1101.53l70.361,-121.868" style="fill:none;stroke:#1978ae;stroke-width:16.67px;"/><path d="M893.014,996.184l70.36,-121.867" style="fill:none;stroke:#1978ae;stroke-width:16.67px;"/></g></svg>