<?xml version="1.0" encoding="UTF-8" standalone="no"?><!DOCTYPE svg PUBLIC "-//W3C//DTD SVG 1.1//EN" "http://www.w3.org/Graphics/SVG/1.1/DTD/svg11.dtd"><svg width="100%" height="100%" viewBox="0 0 1255 1255" version="1.1" xmlns="http://www.w3.org/2000/svg" xmlns:xlink="http://www.w3.org/1999/xlink" xml:space="preserve" xmlns:serif="http://www.serif.com/" style="fill-rule:evenodd;clip-rule:evenodd;stroke-linecap:round;stroke-linejoin:round;stroke-miterlimit:1.5;"><rect id="thunder-rain" x="2.51" y="1.681" width="1250" height="1250" style="fill:none;"/><g id="thunder-rain1" serif:id="thunder-rain"><g><circle cx="479.471" cy="380.343" r="210.397" style="fill:#eaeaea;"/><circle cx="825.031" cy="364.98" r="162.685" style="fill:#eaeaea;"/><circle cx="574.655" cy="450.007" r="190.066" style="fill:#f0f0f0;"/><circle cx="930.396" cy="416.009" r="145.078" style="fill:#f0f0f0;"/><circle cx="335.89" cy="545.679" r="190.066" style="fill:#f8f8f8;"/><circle cx="804.841" cy="570.409" r="190.066" style="fill:#f7f7f7;"/><circle cx="534.755" cy="625.692" r="155.114" style="fill:#fff;"/><circle cx="1041.8" cy="542.767" r="140.561" style="fill:#fff;"/></g><path d="M326.546,948.841l70.36,-121.867" style="fill:none;stroke:#1978ae;stroke-width:16.67px;"/><path d="M379.961,1054.18l70.361,-121.867" style="fill:none;stroke:#1978ae;stroke-width:16.67px;"/><path d="M630.311,804.527c-2.007,0 -3.835,1.156 -4.696,2.969c-7.942,16.725 -47.17,99.332 -59.221,124.71c-0.765,1.611 -0.651,3.501 0.301,5.009c0.953,1.507 2.612,2.421 4.395,2.421c13.192,-0 38.943,-0 52.192,-0c1.793,-0 3.458,0.923 4.409,2.442c0.95,1.52 1.05,3.422 0.265,5.033c-10.895,22.369 -43.666,89.647 -62.75,128.828c-1.119,2.297 -0.404,5.065 1.687,6.532c2.09,1.468 4.936,1.199 6.716,-0.632c45.774,-47.122 147.601,-151.947 177.751,-182.984c1.456,-1.499 1.873,-3.723 1.06,-5.647c-0.814,-1.924 -2.7,-3.175 -4.789,-3.175c-17.699,0 -49.909,0 -65.264,0c-1.819,0 -3.506,-0.95 -4.448,-2.506c-0.942,-1.556 -1.002,-3.491 -0.159,-5.102c8.487,-16.226 28.28,-54.064 36.767,-70.289c0.843,-1.612 0.783,-3.547 -0.159,-5.102c-0.942,-1.556 -2.629,-2.507 -4.447,-2.507c-19.563,0 -66.746,0 -79.61,0Z" style="fill:#ffdb42;"/><path d="M774.995,1054.18l70.36,-121.867" style="fill:none;stroke:#1978ae;stroke-width:16.67px;"/><path d="M919.096,948.841l70.36,-121.867" style="fill:none;stroke:#1978ae;stroke-width:16.67px;"/></g></svg>