<?xml version="1.0" encoding="UTF-8" standalone="no"?><!DOCTYPE svg PUBLIC "-//W3C//DTD SVG 1.1//EN" "http://www.w3.org/Graphics/SVG/1.1/DTD/svg11.dtd"><svg width="100%" height="100%" viewBox="0 0 1255 1255" version="1.1" xmlns="http://www.w3.org/2000/svg" xmlns:xlink="http://www.w3.org/1999/xlink" xml:space="preserve" xmlns:serif="http://www.serif.com/" style="fill-rule:evenodd;clip-rule:evenodd;stroke-linecap:round;stroke-linejoin:round;stroke-miterlimit:1.5;"><rect id="thunder-showers-day" x="2.51" y="2.614" width="1250" height="1250" style="fill:none;"/><g id="thunder-showers-day1" serif:id="thunder-showers-day"><g><circle cx="576.004" cy="371.542" r="211.64" style="fill:#ffdb42;"/><circle cx="483.352" cy="490.454" r="185.99" style="fill:#efefef;"/><circle cx="298.669" cy="514.306" r="152.844" style="fill:#f7f7f7;"/><circle cx="919.13" cy="465.273" r="190.066" style="fill:#efefef;"/><circle cx="729.064" cy="592.007" r="190.066" style="fill:#f7f7f7;"/><circle cx="457.458" cy="648.091" r="139.183" style="fill:#fff;"/><circle cx="919.13" cy="612.576" r="169.497" style="fill:#fff;"/></g><path d="M300.463,960.752l70.361,-121.868" style="fill:none;stroke:#1978ae;stroke-width:16.67px;"/><path d="M353.879,1066.09l70.36,-121.868" style="fill:none;stroke:#1978ae;stroke-width:16.67px;"/><path d="M604.229,816.438c-2.007,-0 -3.835,1.155 -4.696,2.969c-7.942,16.724 -47.17,99.332 -59.222,124.71c-0.765,1.611 -0.651,3.501 0.302,5.008c0.953,1.507 2.611,2.421 4.394,2.421c13.193,0 38.943,0 52.193,0c1.792,0 3.458,0.923 4.408,2.443c0.95,1.519 1.051,3.421 0.266,5.033c-10.896,22.368 -43.666,89.647 -62.751,128.828c-1.118,2.296 -0.403,5.064 1.687,6.532c2.09,1.467 4.937,1.199 6.716,-0.633c45.775,-47.122 147.602,-151.947 177.752,-182.984c1.455,-1.498 1.873,-3.723 1.059,-5.647c-0.813,-1.924 -2.699,-3.174 -4.788,-3.174c-17.7,-0 -49.909,-0 -65.265,-0c-1.819,-0 -3.505,-0.951 -4.447,-2.507c-0.942,-1.555 -1.003,-3.49 -0.16,-5.102c8.488,-16.225 28.281,-54.063 36.768,-70.289c0.843,-1.611 0.782,-3.546 -0.16,-5.102c-0.942,-1.556 -2.628,-2.506 -4.447,-2.506c-19.563,-0 -66.746,-0 -79.609,-0Z" style="fill:#ffdb42;"/><path d="M748.912,1066.09l70.361,-121.868" style="fill:none;stroke:#1978ae;stroke-width:16.67px;"/><path d="M893.014,960.752l70.36,-121.868" style="fill:none;stroke:#1978ae;stroke-width:16.67px;"/></g></svg>