<?xml version="1.0" encoding="UTF-8" standalone="no"?><!DOCTYPE svg PUBLIC "-//W3C//DTD SVG 1.1//EN" "http://www.w3.org/Graphics/SVG/1.1/DTD/svg11.dtd"><svg width="100%" height="100%" viewBox="0 0 1255 1255" version="1.1" xmlns="http://www.w3.org/2000/svg" xmlns:xlink="http://www.w3.org/1999/xlink" xml:space="preserve" xmlns:serif="http://www.serif.com/" style="fill-rule:evenodd;clip-rule:evenodd;stroke-linejoin:round;stroke-miterlimit:2;"><rect id="thunder" x="3.954" y="3.619" width="1250" height="1250" style="fill:none;"/><g id="thunder1" serif:id="thunder"><g><circle cx="444.331" cy="376.177" r="210.397" style="fill:#eaeaea;"/><circle cx="789.89" cy="360.813" r="162.685" style="fill:#eaeaea;"/><circle cx="539.515" cy="445.84" r="190.066" style="fill:#f0f0f0;"/><circle cx="895.256" cy="411.842" r="145.078" style="fill:#f0f0f0;"/><circle cx="300.75" cy="541.512" r="190.066" style="fill:#f8f8f8;"/><circle cx="769.701" cy="566.242" r="190.066" style="fill:#f7f7f7;"/><circle cx="499.615" cy="621.526" r="155.114" style="fill:#fff;"/><circle cx="1006.66" cy="538.601" r="140.561" style="fill:#fff;"/></g><path d="M595.171,800.361c-2.007,-0 -3.835,1.155 -4.696,2.968c-7.942,16.725 -47.17,99.333 -59.221,124.711c-0.765,1.61 -0.651,3.501 0.301,5.008c0.953,1.507 2.612,2.421 4.395,2.421c13.192,-0 38.943,-0 52.192,-0c1.793,-0 3.458,0.923 4.409,2.443c0.95,1.519 1.05,3.421 0.265,5.032c-10.895,22.369 -43.666,89.648 -62.75,128.829c-1.119,2.296 -0.404,5.064 1.687,6.532c2.09,1.467 4.936,1.199 6.716,-0.633c45.774,-47.122 147.601,-151.947 177.751,-182.984c1.456,-1.498 1.873,-3.723 1.06,-5.647c-0.814,-1.924 -2.7,-3.174 -4.789,-3.174c-17.699,-0 -49.909,-0 -65.264,-0c-1.819,-0 -3.506,-0.951 -4.448,-2.507c-0.942,-1.556 -1.002,-3.49 -0.159,-5.102c8.487,-16.225 28.28,-54.064 36.767,-70.289c0.843,-1.611 0.783,-3.546 -0.159,-5.102c-0.942,-1.556 -2.629,-2.506 -4.447,-2.506c-19.563,-0 -66.746,-0 -79.61,-0Z" style="fill:#ffdb42;"/></g></svg>