<?xml version="1.0" encoding="UTF-8" standalone="no"?><!DOCTYPE svg PUBLIC "-//W3C//DTD SVG 1.1//EN" "http://www.w3.org/Graphics/SVG/1.1/DTD/svg11.dtd"><svg width="100%" height="100%" viewBox="0 0 1255 1255" version="1.1" xmlns="http://www.w3.org/2000/svg" xmlns:xlink="http://www.w3.org/1999/xlink" xml:space="preserve" xmlns:serif="http://www.serif.com/" style="fill-rule:evenodd;clip-rule:evenodd;stroke-linecap:round;stroke-linejoin:round;stroke-miterlimit:1.5;"><rect id="wind" x="0.37" y="1.681" width="1250" height="1250" style="fill:none;"/><g id="wind1" serif:id="wind"><g><circle cx="440.748" cy="380.343" r="210.397" style="fill:#eaeaea;"/><circle cx="786.307" cy="364.98" r="162.685" style="fill:#eaeaea;"/><circle cx="535.932" cy="450.007" r="190.066" style="fill:#f0f0f0;"/><circle cx="891.672" cy="416.009" r="145.078" style="fill:#f0f0f0;"/><circle cx="297.167" cy="545.679" r="190.066" style="fill:#f8f8f8;"/><circle cx="766.117" cy="570.409" r="190.066" style="fill:#f7f7f7;"/><circle cx="496.031" cy="625.692" r="155.114" style="fill:#fff;"/><circle cx="1003.08" cy="542.767" r="140.561" style="fill:#fff;"/></g><path d="M955.718,607.333c0.105,0.172 0.208,0.345 0.309,0.52c0.341,0.59 0.656,1.195 0.944,1.813c0.303,0.65 0.578,1.313 0.823,1.987c0.258,0.708 0.484,1.426 0.679,2.154c0.204,0.762 0.375,1.532 0.512,2.309c0.143,0.812 0.251,1.63 0.323,2.451c0.075,0.857 0.112,1.717 0.112,2.577c0,0.896 -0.039,1.791 -0.117,2.684c-0.081,0.928 -0.203,1.852 -0.364,2.77c-0.168,0.953 -0.378,1.897 -0.628,2.832c-0.26,0.969 -0.562,1.926 -0.905,2.869c-0.355,0.976 -0.753,1.936 -1.192,2.878c-0.454,0.974 -0.951,1.927 -1.488,2.858c-0.555,0.961 -1.152,1.898 -1.789,2.808c-0.657,0.938 -1.355,1.848 -2.092,2.726c-0.759,0.905 -1.558,1.777 -2.394,2.613c-0.861,0.861 -1.759,1.683 -2.691,2.466c-0.96,0.806 -1.955,1.569 -2.982,2.288c-1.055,0.739 -2.143,1.432 -3.259,2.076c-1.148,0.663 -2.323,1.275 -3.524,1.835c-1.233,0.574 -2.49,1.095 -3.768,1.561c-1.312,0.477 -2.644,0.897 -3.993,1.258c-1.383,0.371 -2.782,0.681 -4.192,0.93c-1.445,0.255 -2.901,0.446 -4.363,0.574c-1.497,0.131 -3,0.197 -4.503,0.197c-1.539,-0 -3.078,-0.067 -4.611,-0.202c-1.569,-0.137 -3.131,-0.342 -4.681,-0.616c-1.586,-0.28 -3.16,-0.628 -4.715,-1.045c-1.59,-0.426 -3.161,-0.921 -4.708,-1.484c-1.581,-0.576 -3.135,-1.22 -4.66,-1.931c-1.556,-0.725 -3.081,-1.519 -4.568,-2.378c-1.519,-0.876 -2.998,-1.819 -4.434,-2.825c-1.466,-1.026 -2.886,-2.116 -4.257,-3.266c-1.398,-1.173 -2.744,-2.406 -4.034,-3.696c-1.316,-1.316 -2.573,-2.688 -3.769,-4.114c-1.219,-1.452 -2.374,-2.958 -3.462,-4.511c-1.108,-1.583 -2.146,-3.213 -3.112,-4.886c-0.984,-1.704 -1.893,-3.45 -2.725,-5.234c-0.847,-1.816 -1.614,-3.667 -2.299,-5.55c-0.697,-1.916 -1.311,-3.862 -1.839,-5.832c-0.537,-2.004 -0.986,-4.031 -1.346,-6.074c-0.367,-2.079 -0.643,-4.172 -0.827,-6.275c-0.187,-2.138 -0.28,-4.284 -0.28,-6.43c-0,-2.182 0.095,-4.363 0.285,-6.537c0.193,-2.21 0.483,-4.409 0.868,-6.594c0.392,-2.219 0.88,-4.42 1.463,-6.597c0.592,-2.211 1.281,-4.396 2.064,-6.547c0.795,-2.185 1.685,-4.334 2.668,-6.441c0.998,-2.14 2.088,-4.235 3.269,-6.279c1.198,-2.075 2.486,-4.098 3.861,-6.061c1.395,-1.992 2.876,-3.923 4.44,-5.786c1.586,-1.89 3.254,-3.711 4.999,-5.456c1.77,-1.77 3.617,-3.462 5.535,-5.072c1.945,-1.632 3.961,-3.179 6.041,-4.635c2.11,-1.477 4.283,-2.862 6.513,-4.149c2.261,-1.305 4.578,-2.512 6.944,-3.615c2.398,-1.119 4.845,-2.132 7.332,-3.037c2.52,-0.917 5.08,-1.724 7.671,-2.419c2.625,-0.703 5.28,-1.292 7.957,-1.764c2.712,-0.478 5.443,-0.837 8.186,-1.077c2.779,-0.244 5.567,-0.365 8.357,-0.365c2.825,-0 5.649,0.123 8.463,0.369c2.85,0.25 5.688,0.623 8.506,1.12c2.852,0.503 5.682,1.13 8.48,1.88c2.832,0.759 5.63,1.641 8.386,2.644c2.789,1.015 5.532,2.152 8.222,3.406c2.723,1.27 5.388,2.657 7.99,4.159c2.632,1.52 5.197,3.154 7.687,4.897c2.519,1.764 4.96,3.637 7.316,5.614c2.383,2 4.678,4.102 6.878,6.302c2.225,2.225 4.352,4.547 6.374,6.957c2.046,2.438 3.984,4.964 5.81,7.571c1.846,2.636 3.575,5.352 5.185,8.139c1.627,2.818 3.13,5.705 4.505,8.654c1.39,2.982 2.65,6.023 3.775,9.114c1.137,3.125 2.138,6.298 2.998,9.51c0.87,3.246 1.598,6.529 2.182,9.839c0.59,3.346 1.033,6.715 1.329,10.099c0.299,3.42 0.449,6.85 0.449,10.283c0,3.468 -0.151,6.935 -0.453,10.39c-0.306,3.491 -0.763,6.966 -1.372,10.417c-0.615,3.486 -1.381,6.944 -2.297,10.363c-0.926,3.454 -2.001,6.865 -3.224,10.225c-1.235,3.393 -2.618,6.731 -4.144,10.004c-1.541,3.305 -3.226,6.542 -5.05,9.7c-1.841,3.189 -3.821,6.297 -5.933,9.314c-2.133,3.045 -4.397,5.997 -6.787,8.845c-2.414,2.876 -4.951,5.645 -7.606,8.3c-2.679,2.68 -5.475,5.241 -8.378,7.677c-2.931,2.459 -5.967,4.789 -9.101,6.984c-3.163,2.214 -6.421,4.29 -9.765,6.221c-3.375,1.948 -6.833,3.748 -10.365,5.395c-3.564,1.662 -7.199,3.168 -10.895,4.513c-3.729,1.358 -7.516,2.551 -11.349,3.579c-3.868,1.036 -7.779,1.903 -11.722,2.598c-3.979,0.702 -7.986,1.229 -12.011,1.582c-4.06,0.355 -8.133,0.533 -12.208,0.533l-453.32,-0" style="fill:none;stroke:#1770a2;stroke-width:16.67px;"/><path d="M807.686,870.124c0.165,0.933 0.37,1.859 0.616,2.775c0.249,0.931 0.539,1.85 0.868,2.755c0.335,0.919 0.709,1.823 1.123,2.709c0.419,0.901 0.878,1.782 1.375,2.642c0.504,0.873 1.046,1.724 1.624,2.55c0.587,0.838 1.21,1.65 1.868,2.434c0.667,0.796 1.369,1.561 2.103,2.296c0.745,0.744 1.522,1.456 2.329,2.133c0.818,0.687 1.666,1.338 2.542,1.951c0.887,0.621 1.801,1.203 2.739,1.745c0.952,0.549 1.926,1.057 2.922,1.521c1.009,0.47 2.038,0.897 3.084,1.278c1.061,0.386 2.138,0.725 3.228,1.017c1.104,0.296 2.221,0.544 3.347,0.742c1.141,0.201 2.29,0.353 3.445,0.454c1.169,0.102 2.342,0.153 3.515,0.153c1.189,0 2.377,-0.052 3.561,-0.155c1.199,-0.105 2.393,-0.262 3.578,-0.471c1.2,-0.212 2.391,-0.476 3.568,-0.791c1.191,-0.32 2.369,-0.691 3.528,-1.113c1.173,-0.427 2.328,-0.905 3.459,-1.433c1.146,-0.534 2.267,-1.118 3.362,-1.749c1.107,-0.64 2.186,-1.327 3.234,-2.061c1.059,-0.742 2.086,-1.53 3.077,-2.361c1.003,-0.842 1.968,-1.726 2.894,-2.652c0.936,-0.936 1.831,-1.913 2.682,-2.927c0.86,-1.025 1.676,-2.088 2.444,-3.185c0.777,-1.109 1.504,-2.251 2.181,-3.424c0.685,-1.185 1.317,-2.4 1.896,-3.641c0.585,-1.254 1.115,-2.534 1.588,-3.834c0.478,-1.315 0.899,-2.65 1.261,-4.001c0.366,-1.366 0.673,-2.747 0.918,-4.14c0.248,-1.407 0.435,-2.825 0.559,-4.248c0.126,-1.439 0.189,-2.882 0.189,-4.326c0,-1.46 -0.063,-2.918 -0.191,-4.372c-0.128,-1.468 -0.321,-2.93 -0.577,-4.382c-0.258,-1.467 -0.581,-2.921 -0.966,-4.36c-0.389,-1.453 -0.842,-2.888 -1.356,-4.302c-0.52,-1.427 -1.102,-2.832 -1.744,-4.209c-0.648,-1.39 -1.357,-2.752 -2.124,-4.08c-0.775,-1.342 -1.608,-2.65 -2.496,-3.919c-0.898,-1.281 -1.85,-2.523 -2.856,-3.721c-1.015,-1.21 -2.083,-2.375 -3.199,-3.492c-1.128,-1.127 -2.304,-2.205 -3.525,-3.23c-1.233,-1.034 -2.511,-2.015 -3.829,-2.938c-1.331,-0.932 -2.702,-1.805 -4.108,-2.617c-1.42,-0.82 -2.875,-1.577 -4.361,-2.27c-1.5,-0.699 -3.029,-1.333 -4.584,-1.899c-1.569,-0.571 -3.162,-1.073 -4.774,-1.505c-1.628,-0.436 -3.273,-0.801 -4.932,-1.094c-1.674,-0.295 -3.36,-0.517 -5.053,-0.665c-1.708,-0.149 -3.422,-0.224 -5.136,-0.224l-312.519,-0" style="fill:none;stroke:#1770a2;stroke-width:16.67px;"/></g></svg>