<?xml version="1.0" encoding="UTF-8" standalone="no"?><!DOCTYPE svg PUBLIC "-//W3C//DTD SVG 1.1//EN" "http://www.w3.org/Graphics/SVG/1.1/DTD/svg11.dtd"><svg width="100%" height="100%" viewBox="0 0 417 417" version="1.1" xmlns="http://www.w3.org/2000/svg" xmlns:xlink="http://www.w3.org/1999/xlink" xml:space="preserve" xmlns:serif="http://www.serif.com/" style="fill-rule:evenodd;clip-rule:evenodd;stroke-linecap:round;stroke-linejoin:round;stroke-miterlimit:2;"><g id="Ebene_1-2"><g><path d="M373.188,164.938l-57.792,-15.5l15.083,-56.376" style="fill:none;stroke:#fff;stroke-width:14.69px;"/><path d="M324.438,184.688l-47.75,-12.792l12.458,-46.542" style="fill:none;stroke:#fff;stroke-width:14.69px;"/><path d="M281.479,203.563l-40.666,-10.876l10.625,-39.666" style="fill:none;stroke:#fff;stroke-width:14.69px;"/><path d="M331.396,331.146l-15.5,-57.792l56.416,-15.125" style="fill:none;stroke:#fff;stroke-width:14.69px;"/><path d="M289.896,298.813l-12.792,-47.75l46.542,-12.5" style="fill:none;stroke:#fff;stroke-width:14.69px;"/><path d="M252.063,271.063l-10.875,-40.667l39.666,-10.625" style="fill:none;stroke:#fff;stroke-width:14.69px;"/><path d="M166.563,378.063l42.291,-42.292l41.292,41.25" style="fill:none;stroke:#fff;stroke-width:14.69px;"/><path d="M173.813,325.938l34.958,-34.959l34.083,34.084" style="fill:none;stroke:#fff;stroke-width:14.69px;"/><path d="M178.938,279.313l29.791,-29.75l29,29.041" style="fill:none;stroke:#fff;stroke-width:14.69px;"/><path d="M43.479,258.771l57.834,15.5l-15.125,56.375" style="fill:none;stroke:#fff;stroke-width:14.69px;"/><path d="M92.271,239.021l47.75,12.792l-12.5,46.541" style="fill:none;stroke:#fff;stroke-width:14.69px;"/><path d="M135.188,220.104l40.666,10.917l-10.625,39.666" style="fill:none;stroke:#fff;stroke-width:14.69px;"/><path d="M85.271,92.521l15.5,57.833l-56.375,15.084" style="fill:none;stroke:#fff;stroke-width:14.69px;"/><path d="M126.771,124.896l12.791,47.75l-46.541,12.458" style="fill:none;stroke:#fff;stroke-width:14.69px;"/><path d="M164.604,152.646l10.917,40.667l-39.667,10.625" style="fill:none;stroke:#fff;stroke-width:14.69px;"/><path d="M250.146,45.604l-42.334,42.334l-41.249,-41.292" style="fill:none;stroke:#fff;stroke-width:14.69px;"/><path d="M242.854,97.729l-34.958,34.959l-34.083,-34.084" style="fill:none;stroke:#fff;stroke-width:14.69px;"/><path d="M237.729,144.354l-29.75,29.792l-29.042,-29.042" style="fill:none;stroke:#fff;stroke-width:14.69px;"/><path d="M208.354,22.229l0,372.209" style="fill:none;fill-rule:nonzero;stroke:#fff;stroke-width:14.69px;"/><path d="M44.146,306.646l322.292,-186.083" style="fill:none;fill-rule:nonzero;stroke:#fff;stroke-width:14.69px;"/><path d="M44.146,117.021l322.292,186.125" style="fill:none;fill-rule:nonzero;stroke:#fff;stroke-width:14.69px;"/></g></g></svg>