<?xml version="1.0" encoding="UTF-8"?>
<svg id="Ebene_2" data-name="Ebene 2" xmlns="http://www.w3.org/2000/svg" viewBox="0 0 62.6 75.62">
  <defs>
    <style>
      .cls-1 {
        fill: #37b0e4;
        fill-rule: evenodd;
      }
    </style>
  </defs>
  <g id="Ebene_1-2" data-name="Ebene 1">
    <g>
      <path class="cls-1" d="M30.46,36.13c0,.5-.03.99-.08,1.48-.73,7.71-7.24,13.74-15.16,13.74S.82,45.33.08,37.61c-.05-.49-.08-.98-.08-1.48v-1.63C0,19.91,15.23,0,15.23,0c0,0,15.24,19.94,15.24,34.5v1.63Z"/>
      <path class="cls-1" d="M62.6,60.39c0,.5-.03.99-.08,1.48-.73,7.71-7.24,13.74-15.16,13.74s-14.41-6.03-15.14-13.74c-.05-.49-.08-.98-.08-1.48v-1.63c0-14.59,15.23-34.5,15.23-34.5,0,0,15.24,19.94,15.24,34.5v1.63Z"/>
    </g>
  </g>
</svg>