<?xml version="1.0" encoding="UTF-8" standalone="no"?><!DOCTYPE svg PUBLIC "-//W3C//DTD SVG 1.1//EN" "http://www.w3.org/Graphics/SVG/1.1/DTD/svg11.dtd"><svg width="100%" height="100%" viewBox="0 0 417 417" version="1.1" xmlns="http://www.w3.org/2000/svg" xmlns:xlink="http://www.w3.org/1999/xlink" xml:space="preserve" xmlns:serif="http://www.serif.com/" style="fill-rule:evenodd;clip-rule:evenodd;stroke-linejoin:round;stroke-miterlimit:2;"><g id="Ebene_1-2"><g><path d="M204.833,201.333c0,2.084 -0.125,4.125 -0.333,6.167c-3.042,32.125 -30.167,57.25 -63.167,57.25c-33,0 -60,-25.083 -63.083,-57.25c-0.208,-2.042 -0.333,-4.083 -0.333,-6.167l-0,-6.791c-0,-60.792 63.458,-143.75 63.458,-143.75c0,-0 63.5,83.083 63.5,143.75l0,6.791l-0.042,0Z" style="fill:#37b0e4;"/><path d="M338.75,302.417c0,2.083 -0.125,4.125 -0.333,6.166c-3.042,32.125 -30.167,57.25 -63.167,57.25c-33,0 -60.042,-25.125 -63.083,-57.25c-0.209,-2.041 -0.334,-4.083 -0.334,-6.166l0,-6.792c0,-60.792 63.459,-143.75 63.459,-143.75c-0,-0 63.5,83.083 63.5,143.75l-0,6.792l-0.042,-0Z" style="fill:#37b0e4;"/></g></g></svg>