<?xml version="1.0" encoding="UTF-8"?>
<svg id="Ebene_2" xmlns="http://www.w3.org/2000/svg" version="1.1" viewBox="0 0 21.7 98.3">
  <!-- Generator: Adobe Illustrator 29.3.1, SVG Export Plug-In . SVG Version: 2.1.0 Build 151)  -->
  <defs>
    <style>
      .st0 {
        fill: #fff;
      }

      .st1 {
        fill: #f20c0c;
        fill-rule: evenodd;
      }

      .st2 {
        fill: #37b0e4;
      }
    </style>
  </defs>
  <g id="Ebene_1-2">
    <g>
      <g>
        <path class="st1" d="M21.2,49.1c0,.3,0,.7,0,1-.5,5.2-4.9,9.3-10.3,9.3S1.1,55.4.6,50.2c0-.3,0-.7,0-1,0-.6,0-1.2.2-1.8L10,1.2c.2-.9,1.5-.9,1.7,0,2.5,12.2,9.4,46.3,9.4,46.4,0,.5.1,1,.1,1.6h0Z"/>
        <path class="st0" d="M10.8,60C5.2,60,.6,55.8,0,50.2c0-.3,0-.7,0-1.1,0-.7,0-1.3.2-1.9L9.5,1.1C9.6.4,10.2,0,10.8,0s1.2.4,1.4,1.1l3.8,18.8q5.6,27.6,5.6,27.7c0,.4.1,1,.1,1.6h0c0,.4,0,.7,0,1.1-.5,5.6-5.2,9.8-10.8,9.8ZM10.8,1c0,0-.3,0-.4.3L1.2,47.4c-.1.5-.2,1.1-.2,1.7s0,.6,0,.9c.5,5.1,4.7,8.9,9.8,8.9s9.3-3.8,9.8-8.9c0-.3,0-.6,0-1,0-.5,0-1-.1-1.5,0-.3-3-14.8-5.6-27.5L11.2,1.3c0-.3-.3-.3-.4-.3Z"/>
      </g>
      <g>
        <circle class="st0" cx="10.8" cy="49.1" r="8.1"/>
        <path class="st2" d="M10.8,57.7c-4.7,0-8.6-3.9-8.6-8.6s3.9-8.6,8.6-8.6,8.6,3.9,8.6,8.6-3.9,8.6-8.6,8.6ZM10.8,41.6c-4.2,0-7.6,3.4-7.6,7.6s3.4,7.6,7.6,7.6,7.6-3.4,7.6-7.6-3.4-7.6-7.6-7.6Z"/>
      </g>
      <g>
        <circle class="st0" cx="10.8" cy="49.1" r="4.4"/>
        <path class="st2" d="M10.8,54.1c-2.7,0-4.9-2.2-4.9-4.9s2.2-4.9,4.9-4.9,4.9,2.2,4.9,4.9-2.2,4.9-4.9,4.9ZM10.8,45.2c-2.2,0-3.9,1.8-3.9,3.9s1.8,3.9,3.9,3.9,3.9-1.8,3.9-3.9-1.8-3.9-3.9-3.9Z"/>
      </g>
    </g>
  </g>
</svg>